<?xml version="1.0" standalone="no"?><!-- Generator: Gravit.io --><svg xmlns="http://www.w3.org/2000/svg" xmlns:xlink="http://www.w3.org/1999/xlink" style="isolation:isolate" viewBox="0 0 2880 1800" width="2880" height="1800"><defs><clipPath id="_clipPath_GIoW3erq7sTODw95fehD0vhpeLWTgumf"><rect width="2880" height="1800"/></clipPath></defs><g clip-path="url(#_clipPath_GIoW3erq7sTODw95fehD0vhpeLWTgumf)"><rect x="0" y="0" width="1440" height="900" transform="matrix(1,0,0,1,0,0)" fill="rgb(235,235,235)"/><clipPath id="_clipPath_yr6ImBpHEzRoz5rkSiA9VGfKUF95PvSv"><rect x="0" y="0" width="1440" height="900" transform="matrix(1,0,0,1,0,0)" fill="rgb(235,235,235)"/></clipPath><g clip-path="url(#_clipPath_yr6ImBpHEzRoz5rkSiA9VGfKUF95PvSv)"><path d=" M 984 742 L 1026 523 L 652 612 L 984 742 Z " fill="rgb(243,128,28)" vector-effect="non-scaling-stroke" stroke-width="1.51" stroke="rgb(243,128,28)" stroke-linejoin="miter" stroke-linecap="butt" stroke-miterlimit="4"/><path d=" M 1026 523 L 724 406 L 652 612 L 1026 523 Z " fill="rgb(249,143,36)" vector-effect="non-scaling-stroke" stroke-width="1.51" stroke="rgb(249,143,36)" stroke-linejoin="miter" stroke-linecap="butt" stroke-miterlimit="4"/><path d=" M 1000 182 L 806 196 L 724 406 L 1000 182 Z " fill="rgb(251,162,53)" vector-effect="non-scaling-stroke" stroke-width="1.51" stroke="rgb(251,162,53)" stroke-linejoin="miter" stroke-linecap="butt" stroke-miterlimit="4"/><path d=" M 1339 750 L 1354 525 L 1026 523 L 1339 750 Z " fill="rgb(229,109,18)" vector-effect="non-scaling-stroke" stroke-width="1.51" stroke="rgb(229,109,18)" stroke-linejoin="miter" stroke-linecap="butt" stroke-miterlimit="4"/><path d=" M 758 1044 L 1090 950 L 984 742 L 758 1044 Z " fill="rgb(225,102,15)" vector-effect="non-scaling-stroke" stroke-width="1.51" stroke="rgb(225,102,15)" stroke-linejoin="miter" stroke-linecap="butt" stroke-miterlimit="4"/><path d=" M 1237 285 L 1000 182 L 1026 523 L 1237 285 Z " fill="rgb(244,141,39)" vector-effect="non-scaling-stroke" stroke-width="1.51" stroke="rgb(244,141,39)" stroke-linejoin="miter" stroke-linecap="butt" stroke-miterlimit="4"/><path d=" M 1026 523 L 1000 182 L 724 406 L 1026 523 Z " fill="rgb(249,148,41)" vector-effect="non-scaling-stroke" stroke-width="1.51" stroke="rgb(249,148,41)" stroke-linejoin="miter" stroke-linecap="butt" stroke-miterlimit="4"/><path d=" M 652 612 L 758 1044 L 984 742 L 652 612 Z " fill="rgb(236,120,24)" vector-effect="non-scaling-stroke" stroke-width="1.51" stroke="rgb(236,120,24)" stroke-linejoin="miter" stroke-linecap="butt" stroke-miterlimit="4"/><path d=" M 724 406 L 463 348 L 652 612 L 724 406 Z " fill="rgb(255,160,48)" vector-effect="non-scaling-stroke" stroke-width="1.51" stroke="rgb(255,160,48)" stroke-linejoin="miter" stroke-linecap="butt" stroke-miterlimit="4"/><path d=" M 652 612 L 367 734 L 758 1044 L 652 612 Z " fill="rgb(240,135,36)" vector-effect="non-scaling-stroke" stroke-width="1.51" stroke="rgb(240,135,36)" stroke-linejoin="miter" stroke-linecap="butt" stroke-miterlimit="4"/><path d=" M 451 242 L 463 348 L 724 406 L 451 242 Z " fill="rgb(255,176,61)" vector-effect="non-scaling-stroke" stroke-width="1.51" stroke="rgb(255,176,61)" stroke-linejoin="miter" stroke-linecap="butt" stroke-miterlimit="4"/><path d=" M 463 348 L 367 734 L 652 612 L 463 348 Z " fill="rgb(251,159,51)" vector-effect="non-scaling-stroke" stroke-width="1.51" stroke="rgb(251,159,51)" stroke-linejoin="miter" stroke-linecap="butt" stroke-miterlimit="4"/><path d=" M 1354 525 L 1237 285 L 1026 523 L 1354 525 Z " fill="rgb(237,124,27)" vector-effect="non-scaling-stroke" stroke-width="1.51" stroke="rgb(237,124,27)" stroke-linejoin="miter" stroke-linecap="butt" stroke-miterlimit="4"/><path d=" M 1339 750 L 1026 523 L 984 742 L 1339 750 Z " fill="rgb(233,110,19)" vector-effect="non-scaling-stroke" stroke-width="1.51" stroke="rgb(233,110,19)" stroke-linejoin="miter" stroke-linecap="butt" stroke-miterlimit="4"/><path d=" M 1090 950 L 1339 750 L 984 742 L 1090 950 Z " fill="rgb(223,98,13)" vector-effect="non-scaling-stroke" stroke-width="1.51" stroke="rgb(223,98,13)" stroke-linejoin="miter" stroke-linecap="butt" stroke-miterlimit="4"/><path d=" M 806 196 L 451 242 L 724 406 L 806 196 Z " fill="rgb(255,172,59)" vector-effect="non-scaling-stroke" stroke-width="1.51" stroke="rgb(255,172,59)" stroke-linejoin="miter" stroke-linecap="butt" stroke-miterlimit="4"/><path d=" M 463 348 L 223 534 L 367 734 L 463 348 Z " fill="rgb(252,170,64)" vector-effect="non-scaling-stroke" stroke-width="1.51" stroke="rgb(252,170,64)" stroke-linejoin="miter" stroke-linecap="butt" stroke-miterlimit="4"/><path d=" M 367 734 L 529 1112 L 758 1044 L 367 734 Z " fill="rgb(228,126,33)" vector-effect="non-scaling-stroke" stroke-width="1.51" stroke="rgb(228,126,33)" stroke-linejoin="miter" stroke-linecap="butt" stroke-miterlimit="4"/><path d=" M 203 116 L 223 534 L 463 348 L 203 116 Z " fill="rgb(255,191,82)" vector-effect="non-scaling-stroke" stroke-width="1.51" stroke="rgb(255,191,82)" stroke-linejoin="miter" stroke-linecap="butt" stroke-miterlimit="4"/><path d=" M 367 734 L 246 848 L 529 1112 L 367 734 Z " fill="rgb(234,142,47)" vector-effect="non-scaling-stroke" stroke-width="1.51" stroke="rgb(234,142,47)" stroke-linejoin="miter" stroke-linecap="butt" stroke-miterlimit="4"/><path d=" M 1090 950 L 1343 1110 L 1339 750 L 1090 950 Z " fill="rgb(209,82,4)" vector-effect="non-scaling-stroke" stroke-width="1.51" stroke="rgb(209,82,4)" stroke-linejoin="miter" stroke-linecap="butt" stroke-miterlimit="4"/><path d=" M 223 534 L 246 848 L 367 734 L 223 534 Z " fill="rgb(247,161,65)" vector-effect="non-scaling-stroke" stroke-width="1.51" stroke="rgb(247,161,65)" stroke-linejoin="miter" stroke-linecap="butt" stroke-miterlimit="4"/><path d=" M 806 196 L 438 -54 L 451 242 L 806 196 Z " fill="rgb(255,190,80)" vector-effect="non-scaling-stroke" stroke-width="1.51" stroke="rgb(255,190,80)" stroke-linejoin="miter" stroke-linecap="butt" stroke-miterlimit="4"/><path d=" M 1000 182 L 809 -75 L 806 196 L 1000 182 Z " fill="rgb(252,172,71)" vector-effect="non-scaling-stroke" stroke-width="1.51" stroke="rgb(252,172,71)" stroke-linejoin="miter" stroke-linecap="butt" stroke-miterlimit="4"/><path d=" M 1089 -218 L 809 -75 L 1000 182 L 1089 -218 Z " fill="rgb(251,174,87)" vector-effect="non-scaling-stroke" stroke-width="1.51" stroke="rgb(251,174,87)" stroke-linejoin="miter" stroke-linecap="butt" stroke-miterlimit="4"/><path d=" M 246 848 L 209 903 L 529 1112 L 246 848 Z " fill="rgb(230,141,52)" vector-effect="non-scaling-stroke" stroke-width="1.51" stroke="rgb(230,141,52)" stroke-linejoin="miter" stroke-linecap="butt" stroke-miterlimit="4"/><path d=" M -22 998 L 209 903 L -184 660 L -22 998 Z " fill="rgb(240,162,86)" vector-effect="non-scaling-stroke" stroke-width="1.51" stroke="rgb(240,162,86)" stroke-linejoin="miter" stroke-linecap="butt" stroke-miterlimit="4"/><path d=" M 1339 750 L 1558 618 L 1354 525 L 1339 750 Z " fill="rgb(217,97,14)" vector-effect="non-scaling-stroke" stroke-width="1.51" stroke="rgb(217,97,14)" stroke-linejoin="miter" stroke-linecap="butt" stroke-miterlimit="4"/><path d=" M 1354 525 L 1585 392 L 1237 285 L 1354 525 Z " fill="rgb(226,118,26)" vector-effect="non-scaling-stroke" stroke-width="1.51" stroke="rgb(226,118,26)" stroke-linejoin="miter" stroke-linecap="butt" stroke-miterlimit="4"/><path d=" M 1667 1053 L 1558 618 L 1339 750 L 1667 1053 Z " fill="rgb(198,79,7)" vector-effect="non-scaling-stroke" stroke-width="1.51" stroke="rgb(198,79,7)" stroke-linejoin="miter" stroke-linecap="butt" stroke-miterlimit="4"/><path d=" M 1558 618 L 1585 392 L 1354 525 L 1558 618 Z " fill="rgb(215,104,19)" vector-effect="non-scaling-stroke" stroke-width="1.51" stroke="rgb(215,104,19)" stroke-linejoin="miter" stroke-linecap="butt" stroke-miterlimit="4"/><path d=" M 1322 -151 L 1089 -218 L 1000 182 L 1322 -151 Z " fill="rgb(245,166,85)" vector-effect="non-scaling-stroke" stroke-width="1.51" stroke="rgb(245,166,85)" stroke-linejoin="miter" stroke-linecap="butt" stroke-miterlimit="4"/><path d=" M 1343 1110 L 1667 1053 L 1339 750 L 1343 1110 Z " fill="rgb(193,70,3)" vector-effect="non-scaling-stroke" stroke-width="1.51" stroke="rgb(193,70,3)" stroke-linejoin="miter" stroke-linecap="butt" stroke-miterlimit="4"/><path d=" M 451 242 L 203 116 L 463 348 L 451 242 Z " fill="rgb(254,195,80)" vector-effect="non-scaling-stroke" stroke-width="1.51" stroke="rgb(254,195,80)" stroke-linejoin="miter" stroke-linecap="butt" stroke-miterlimit="4"/><path d=" M 809 -75 L 438 -54 L 806 196 L 809 -75 Z " fill="rgb(255,189,89)" vector-effect="non-scaling-stroke" stroke-width="1.51" stroke="rgb(255,189,89)" stroke-linejoin="miter" stroke-linecap="butt" stroke-miterlimit="4"/><path d=" M -184 660 L 209 903 L 246 848 L -184 660 Z " fill="rgb(243,163,82)" vector-effect="non-scaling-stroke" stroke-width="1.51" stroke="rgb(243,163,82)" stroke-linejoin="miter" stroke-linecap="butt" stroke-miterlimit="4"/><path d=" M 438 -54 L 203 116 L 451 242 L 438 -54 Z " fill="rgb(255,204,98)" vector-effect="non-scaling-stroke" stroke-width="1.51" stroke="rgb(255,204,98)" stroke-linejoin="miter" stroke-linecap="butt" stroke-miterlimit="4"/><path d=" M 1322 -151 L 1000 182 L 1237 285 L 1322 -151 Z " fill="rgb(241,153,61)" vector-effect="non-scaling-stroke" stroke-width="1.51" stroke="rgb(241,153,61)" stroke-linejoin="miter" stroke-linecap="butt" stroke-miterlimit="4"/><path d=" M 1585 392 L 1630 222 L 1237 285 L 1585 392 Z " fill="rgb(219,124,35)" vector-effect="non-scaling-stroke" stroke-width="1.51" stroke="rgb(219,124,35)" stroke-linejoin="miter" stroke-linecap="butt" stroke-miterlimit="4"/><path d=" M 1630 222 L 1322 -151 L 1237 285 L 1630 222 Z " fill="rgb(229,142,55)" vector-effect="non-scaling-stroke" stroke-width="1.51" stroke="rgb(229,142,55)" stroke-linejoin="miter" stroke-linecap="butt" stroke-miterlimit="4"/><path d=" M 438 -54 L 169 -79 L 203 116 L 438 -54 Z " fill="rgb(255,215,122)" vector-effect="non-scaling-stroke" stroke-width="1.51" stroke="rgb(255,215,122)" stroke-linejoin="miter" stroke-linecap="butt" stroke-miterlimit="4"/><path d=" M 209 903 L 41 1216 L 529 1112 L 209 903 Z " fill="rgb(218,137,57)" vector-effect="non-scaling-stroke" stroke-width="1.51" stroke="rgb(218,137,57)" stroke-linejoin="miter" stroke-linecap="butt" stroke-miterlimit="4"/><path d=" M -184 660 L 246 848 L 223 534 L -184 660 Z " fill="rgb(250,172,86)" vector-effect="non-scaling-stroke" stroke-width="1.51" stroke="rgb(250,172,86)" stroke-linejoin="miter" stroke-linecap="butt" stroke-miterlimit="4"/><path d=" M 203 116 L -129 399 L 223 534 L 203 116 Z " fill="rgb(255,199,101)" vector-effect="non-scaling-stroke" stroke-width="1.51" stroke="rgb(255,199,101)" stroke-linejoin="miter" stroke-linecap="butt" stroke-miterlimit="4"/><path d=" M -62 114 L -129 399 L 203 116 L -62 114 Z " fill="rgb(255,213,118)" vector-effect="non-scaling-stroke" stroke-width="1.51" stroke="rgb(255,213,118)" stroke-linejoin="miter" stroke-linecap="butt" stroke-miterlimit="4"/><path d=" M -22 998 L 41 1216 L 209 903 L -22 998 Z " fill="rgb(223,148,77)" vector-effect="non-scaling-stroke" stroke-width="1.51" stroke="rgb(223,148,77)" stroke-linejoin="miter" stroke-linecap="butt" stroke-miterlimit="4"/><path d=" M 169 -79 L -62 114 L 203 116 L 169 -79 Z " fill="rgb(255,220,132)" vector-effect="non-scaling-stroke" stroke-width="1.51" stroke="rgb(255,220,132)" stroke-linejoin="miter" stroke-linecap="butt" stroke-miterlimit="4"/><path d=" M -129 399 L -184 660 L 223 534 L -129 399 Z " fill="rgb(255,187,100)" vector-effect="non-scaling-stroke" stroke-width="1.51" stroke="rgb(255,187,100)" stroke-linejoin="miter" stroke-linecap="butt" stroke-miterlimit="4"/><path d=" M 1619 -187 L 1322 -151 L 1630 222 L 1619 -187 Z " fill="rgb(219,146,74)" vector-effect="non-scaling-stroke" stroke-width="1.51" stroke="rgb(219,146,74)" stroke-linejoin="miter" stroke-linecap="butt" stroke-miterlimit="4"/><path d=" M 169 -79 L -160 -117 L -62 114 L 169 -79 Z " fill="rgb(255,229,150)" vector-effect="non-scaling-stroke" stroke-width="1.51" stroke="rgb(255,229,150)" stroke-linejoin="miter" stroke-linecap="butt" stroke-miterlimit="4"/></g><rect x="1437" y="0" width="1440" height="900" transform="matrix(1,0,0,1,0,0)" fill="rgb(235,235,235)"/><clipPath id="_clipPath_s1tZdfwQIyM9EpPON12q0pjJ3SNF63q1"><rect x="1437" y="0" width="1440" height="900" transform="matrix(1,0,0,1,0,0)" fill="rgb(235,235,235)"/></clipPath><g clip-path="url(#_clipPath_s1tZdfwQIyM9EpPON12q0pjJ3SNF63q1)"><path d=" M 1893 742 L 1851 523 L 2225 612 L 1893 742 Z " fill="rgb(243,128,28)" vector-effect="non-scaling-stroke" stroke-width="1.51" stroke="rgb(243,128,28)" stroke-linejoin="miter" stroke-linecap="butt" stroke-miterlimit="4"/><path d=" M 1851 523 L 2153 406 L 2225 612 L 1851 523 Z " fill="rgb(249,143,36)" vector-effect="non-scaling-stroke" stroke-width="1.51" stroke="rgb(249,143,36)" stroke-linejoin="miter" stroke-linecap="butt" stroke-miterlimit="4"/><path d=" M 1877 182 L 2071 196 L 2153 406 L 1877 182 Z " fill="rgb(251,162,53)" vector-effect="non-scaling-stroke" stroke-width="1.51" stroke="rgb(251,162,53)" stroke-linejoin="miter" stroke-linecap="butt" stroke-miterlimit="4"/><path d=" M 1538 750 L 1523 525 L 1851 523 L 1538 750 Z " fill="rgb(229,109,18)" vector-effect="non-scaling-stroke" stroke-width="1.51" stroke="rgb(229,109,18)" stroke-linejoin="miter" stroke-linecap="butt" stroke-miterlimit="4"/><path d=" M 2119 1044 L 1787 950 L 1893 742 L 2119 1044 Z " fill="rgb(225,102,15)" vector-effect="non-scaling-stroke" stroke-width="1.51" stroke="rgb(225,102,15)" stroke-linejoin="miter" stroke-linecap="butt" stroke-miterlimit="4"/><path d=" M 1640 285 L 1877 182 L 1851 523 L 1640 285 Z " fill="rgb(244,141,39)" vector-effect="non-scaling-stroke" stroke-width="1.51" stroke="rgb(244,141,39)" stroke-linejoin="miter" stroke-linecap="butt" stroke-miterlimit="4"/><path d=" M 1851 523 L 1877 182 L 2153 406 L 1851 523 Z " fill="rgb(249,148,41)" vector-effect="non-scaling-stroke" stroke-width="1.51" stroke="rgb(249,148,41)" stroke-linejoin="miter" stroke-linecap="butt" stroke-miterlimit="4"/><path d=" M 2225 612 L 2119 1044 L 1893 742 L 2225 612 Z " fill="rgb(236,120,24)" vector-effect="non-scaling-stroke" stroke-width="1.51" stroke="rgb(236,120,24)" stroke-linejoin="miter" stroke-linecap="butt" stroke-miterlimit="4"/><path d=" M 2153 406 L 2414 348 L 2225 612 L 2153 406 Z " fill="rgb(255,160,48)" vector-effect="non-scaling-stroke" stroke-width="1.51" stroke="rgb(255,160,48)" stroke-linejoin="miter" stroke-linecap="butt" stroke-miterlimit="4"/><path d=" M 2225 612 L 2510 734 L 2119 1044 L 2225 612 Z " fill="rgb(240,135,36)" vector-effect="non-scaling-stroke" stroke-width="1.51" stroke="rgb(240,135,36)" stroke-linejoin="miter" stroke-linecap="butt" stroke-miterlimit="4"/><path d=" M 2426 242 L 2414 348 L 2153 406 L 2426 242 Z " fill="rgb(255,176,61)" vector-effect="non-scaling-stroke" stroke-width="1.51" stroke="rgb(255,176,61)" stroke-linejoin="miter" stroke-linecap="butt" stroke-miterlimit="4"/><path d=" M 2414 348 L 2510 734 L 2225 612 L 2414 348 Z " fill="rgb(251,159,51)" vector-effect="non-scaling-stroke" stroke-width="1.51" stroke="rgb(251,159,51)" stroke-linejoin="miter" stroke-linecap="butt" stroke-miterlimit="4"/><path d=" M 1523 525 L 1640 285 L 1851 523 L 1523 525 Z " fill="rgb(237,124,27)" vector-effect="non-scaling-stroke" stroke-width="1.51" stroke="rgb(237,124,27)" stroke-linejoin="miter" stroke-linecap="butt" stroke-miterlimit="4"/><path d=" M 1538 750 L 1851 523 L 1893 742 L 1538 750 Z " fill="rgb(233,110,19)" vector-effect="non-scaling-stroke" stroke-width="1.51" stroke="rgb(233,110,19)" stroke-linejoin="miter" stroke-linecap="butt" stroke-miterlimit="4"/><path d=" M 1787 950 L 1538 750 L 1893 742 L 1787 950 Z " fill="rgb(223,98,13)" vector-effect="non-scaling-stroke" stroke-width="1.51" stroke="rgb(223,98,13)" stroke-linejoin="miter" stroke-linecap="butt" stroke-miterlimit="4"/><path d=" M 2071 196 L 2426 242 L 2153 406 L 2071 196 Z " fill="rgb(255,172,59)" vector-effect="non-scaling-stroke" stroke-width="1.51" stroke="rgb(255,172,59)" stroke-linejoin="miter" stroke-linecap="butt" stroke-miterlimit="4"/><path d=" M 2414 348 L 2654 534 L 2510 734 L 2414 348 Z " fill="rgb(252,170,64)" vector-effect="non-scaling-stroke" stroke-width="1.51" stroke="rgb(252,170,64)" stroke-linejoin="miter" stroke-linecap="butt" stroke-miterlimit="4"/><path d=" M 2510 734 L 2348 1112 L 2119 1044 L 2510 734 Z " fill="rgb(228,126,33)" vector-effect="non-scaling-stroke" stroke-width="1.51" stroke="rgb(228,126,33)" stroke-linejoin="miter" stroke-linecap="butt" stroke-miterlimit="4"/><path d=" M 2674 116 L 2654 534 L 2414 348 L 2674 116 Z " fill="rgb(255,191,82)" vector-effect="non-scaling-stroke" stroke-width="1.51" stroke="rgb(255,191,82)" stroke-linejoin="miter" stroke-linecap="butt" stroke-miterlimit="4"/><path d=" M 2510 734 L 2631 848 L 2348 1112 L 2510 734 Z " fill="rgb(234,142,47)" vector-effect="non-scaling-stroke" stroke-width="1.51" stroke="rgb(234,142,47)" stroke-linejoin="miter" stroke-linecap="butt" stroke-miterlimit="4"/><path d=" M 1787 950 L 1534 1110 L 1538 750 L 1787 950 Z " fill="rgb(209,82,4)" vector-effect="non-scaling-stroke" stroke-width="1.51" stroke="rgb(209,82,4)" stroke-linejoin="miter" stroke-linecap="butt" stroke-miterlimit="4"/><path d=" M 2654 534 L 2631 848 L 2510 734 L 2654 534 Z " fill="rgb(247,161,65)" vector-effect="non-scaling-stroke" stroke-width="1.51" stroke="rgb(247,161,65)" stroke-linejoin="miter" stroke-linecap="butt" stroke-miterlimit="4"/><path d=" M 2071 196 L 2439 -54 L 2426 242 L 2071 196 Z " fill="rgb(255,190,80)" vector-effect="non-scaling-stroke" stroke-width="1.51" stroke="rgb(255,190,80)" stroke-linejoin="miter" stroke-linecap="butt" stroke-miterlimit="4"/><path d=" M 1877 182 L 2068 -75 L 2071 196 L 1877 182 Z " fill="rgb(252,172,71)" vector-effect="non-scaling-stroke" stroke-width="1.51" stroke="rgb(252,172,71)" stroke-linejoin="miter" stroke-linecap="butt" stroke-miterlimit="4"/><path d=" M 1788 -218 L 2068 -75 L 1877 182 L 1788 -218 Z " fill="rgb(251,174,87)" vector-effect="non-scaling-stroke" stroke-width="1.51" stroke="rgb(251,174,87)" stroke-linejoin="miter" stroke-linecap="butt" stroke-miterlimit="4"/><path d=" M 2631 848 L 2668 903 L 2348 1112 L 2631 848 Z " fill="rgb(230,141,52)" vector-effect="non-scaling-stroke" stroke-width="1.51" stroke="rgb(230,141,52)" stroke-linejoin="miter" stroke-linecap="butt" stroke-miterlimit="4"/><path d=" M 2899 998 L 2668 903 L 3061 660 L 2899 998 Z " fill="rgb(240,162,86)" vector-effect="non-scaling-stroke" stroke-width="1.51" stroke="rgb(240,162,86)" stroke-linejoin="miter" stroke-linecap="butt" stroke-miterlimit="4"/><path d=" M 1538 750 L 1319 618 L 1523 525 L 1538 750 Z " fill="rgb(217,97,14)" vector-effect="non-scaling-stroke" stroke-width="1.51" stroke="rgb(217,97,14)" stroke-linejoin="miter" stroke-linecap="butt" stroke-miterlimit="4"/><path d=" M 1523 525 L 1292 392 L 1640 285 L 1523 525 Z " fill="rgb(226,118,26)" vector-effect="non-scaling-stroke" stroke-width="1.51" stroke="rgb(226,118,26)" stroke-linejoin="miter" stroke-linecap="butt" stroke-miterlimit="4"/><path d=" M 1210 1053 L 1319 618 L 1538 750 L 1210 1053 Z " fill="rgb(198,79,7)" vector-effect="non-scaling-stroke" stroke-width="1.51" stroke="rgb(198,79,7)" stroke-linejoin="miter" stroke-linecap="butt" stroke-miterlimit="4"/><path d=" M 1319 618 L 1292 392 L 1523 525 L 1319 618 Z " fill="rgb(215,104,19)" vector-effect="non-scaling-stroke" stroke-width="1.51" stroke="rgb(215,104,19)" stroke-linejoin="miter" stroke-linecap="butt" stroke-miterlimit="4"/><path d=" M 1555 -151 L 1788 -218 L 1877 182 L 1555 -151 Z " fill="rgb(245,166,85)" vector-effect="non-scaling-stroke" stroke-width="1.51" stroke="rgb(245,166,85)" stroke-linejoin="miter" stroke-linecap="butt" stroke-miterlimit="4"/><path d=" M 1534 1110 L 1210 1053 L 1538 750 L 1534 1110 Z " fill="rgb(193,70,3)" vector-effect="non-scaling-stroke" stroke-width="1.51" stroke="rgb(193,70,3)" stroke-linejoin="miter" stroke-linecap="butt" stroke-miterlimit="4"/><path d=" M 2426 242 L 2674 116 L 2414 348 L 2426 242 Z " fill="rgb(254,195,80)" vector-effect="non-scaling-stroke" stroke-width="1.51" stroke="rgb(254,195,80)" stroke-linejoin="miter" stroke-linecap="butt" stroke-miterlimit="4"/><path d=" M 2068 -75 L 2439 -54 L 2071 196 L 2068 -75 Z " fill="rgb(255,189,89)" vector-effect="non-scaling-stroke" stroke-width="1.51" stroke="rgb(255,189,89)" stroke-linejoin="miter" stroke-linecap="butt" stroke-miterlimit="4"/><path d=" M 3061 660 L 2668 903 L 2631 848 L 3061 660 Z " fill="rgb(243,163,82)" vector-effect="non-scaling-stroke" stroke-width="1.51" stroke="rgb(243,163,82)" stroke-linejoin="miter" stroke-linecap="butt" stroke-miterlimit="4"/><path d=" M 2439 -54 L 2674 116 L 2426 242 L 2439 -54 Z " fill="rgb(255,204,98)" vector-effect="non-scaling-stroke" stroke-width="1.51" stroke="rgb(255,204,98)" stroke-linejoin="miter" stroke-linecap="butt" stroke-miterlimit="4"/><path d=" M 1555 -151 L 1877 182 L 1640 285 L 1555 -151 Z " fill="rgb(241,153,61)" vector-effect="non-scaling-stroke" stroke-width="1.51" stroke="rgb(241,153,61)" stroke-linejoin="miter" stroke-linecap="butt" stroke-miterlimit="4"/><path d=" M 1292 392 L 1247 222 L 1640 285 L 1292 392 Z " fill="rgb(219,124,35)" vector-effect="non-scaling-stroke" stroke-width="1.51" stroke="rgb(219,124,35)" stroke-linejoin="miter" stroke-linecap="butt" stroke-miterlimit="4"/><path d=" M 1247 222 L 1555 -151 L 1640 285 L 1247 222 Z " fill="rgb(229,142,55)" vector-effect="non-scaling-stroke" stroke-width="1.51" stroke="rgb(229,142,55)" stroke-linejoin="miter" stroke-linecap="butt" stroke-miterlimit="4"/><path d=" M 2439 -54 L 2708 -79 L 2674 116 L 2439 -54 Z " fill="rgb(255,215,122)" vector-effect="non-scaling-stroke" stroke-width="1.51" stroke="rgb(255,215,122)" stroke-linejoin="miter" stroke-linecap="butt" stroke-miterlimit="4"/><path d=" M 2668 903 L 2836 1216 L 2348 1112 L 2668 903 Z " fill="rgb(218,137,57)" vector-effect="non-scaling-stroke" stroke-width="1.51" stroke="rgb(218,137,57)" stroke-linejoin="miter" stroke-linecap="butt" stroke-miterlimit="4"/><path d=" M 3061 660 L 2631 848 L 2654 534 L 3061 660 Z " fill="rgb(250,172,86)" vector-effect="non-scaling-stroke" stroke-width="1.51" stroke="rgb(250,172,86)" stroke-linejoin="miter" stroke-linecap="butt" stroke-miterlimit="4"/><path d=" M 2674 116 L 3006 399 L 2654 534 L 2674 116 Z " fill="rgb(255,199,101)" vector-effect="non-scaling-stroke" stroke-width="1.51" stroke="rgb(255,199,101)" stroke-linejoin="miter" stroke-linecap="butt" stroke-miterlimit="4"/><path d=" M 2939 114 L 3006 399 L 2674 116 L 2939 114 Z " fill="rgb(255,213,118)" vector-effect="non-scaling-stroke" stroke-width="1.51" stroke="rgb(255,213,118)" stroke-linejoin="miter" stroke-linecap="butt" stroke-miterlimit="4"/><path d=" M 2899 998 L 2836 1216 L 2668 903 L 2899 998 Z " fill="rgb(223,148,77)" vector-effect="non-scaling-stroke" stroke-width="1.51" stroke="rgb(223,148,77)" stroke-linejoin="miter" stroke-linecap="butt" stroke-miterlimit="4"/><path d=" M 2708 -79 L 2939 114 L 2674 116 L 2708 -79 Z " fill="rgb(255,220,132)" vector-effect="non-scaling-stroke" stroke-width="1.51" stroke="rgb(255,220,132)" stroke-linejoin="miter" stroke-linecap="butt" stroke-miterlimit="4"/><path d=" M 3006 399 L 3061 660 L 2654 534 L 3006 399 Z " fill="rgb(255,187,100)" vector-effect="non-scaling-stroke" stroke-width="1.51" stroke="rgb(255,187,100)" stroke-linejoin="miter" stroke-linecap="butt" stroke-miterlimit="4"/><path d=" M 1258 -187 L 1555 -151 L 1247 222 L 1258 -187 Z " fill="rgb(219,146,74)" vector-effect="non-scaling-stroke" stroke-width="1.51" stroke="rgb(219,146,74)" stroke-linejoin="miter" stroke-linecap="butt" stroke-miterlimit="4"/><path d=" M 2708 -79 L 3037 -117 L 2939 114 L 2708 -79 Z " fill="rgb(255,229,150)" vector-effect="non-scaling-stroke" stroke-width="1.51" stroke="rgb(255,229,150)" stroke-linejoin="miter" stroke-linecap="butt" stroke-miterlimit="4"/></g><rect x="0" y="900" width="1440" height="900" transform="matrix(-1,0,0,-1,1440,2700)" fill="rgb(235,235,235)"/><clipPath id="_clipPath_bjfrGkZXObcnnGiw99hvDceQo1wznAep"><rect x="0" y="900" width="1440" height="900" transform="matrix(-1,0,0,-1,1440,2700)" fill="rgb(235,235,235)"/></clipPath><g clip-path="url(#_clipPath_bjfrGkZXObcnnGiw99hvDceQo1wznAep)"><path d=" M 984 1058 L 1026 1277 L 652 1188 L 984 1058 Z " fill="rgb(243,128,28)" vector-effect="non-scaling-stroke" stroke-width="1.51" stroke="rgb(243,128,28)" stroke-linejoin="miter" stroke-linecap="butt" stroke-miterlimit="4"/><path d=" M 1026 1277 L 724 1394 L 652 1188 L 1026 1277 Z " fill="rgb(249,143,36)" vector-effect="non-scaling-stroke" stroke-width="1.51" stroke="rgb(249,143,36)" stroke-linejoin="miter" stroke-linecap="butt" stroke-miterlimit="4"/><path d=" M 1000 1618 L 806 1604 L 724 1394 L 1000 1618 Z " fill="rgb(251,162,53)" vector-effect="non-scaling-stroke" stroke-width="1.51" stroke="rgb(251,162,53)" stroke-linejoin="miter" stroke-linecap="butt" stroke-miterlimit="4"/><path d=" M 1339 1050 L 1354 1275 L 1026 1277 L 1339 1050 Z " fill="rgb(229,109,18)" vector-effect="non-scaling-stroke" stroke-width="1.51" stroke="rgb(229,109,18)" stroke-linejoin="miter" stroke-linecap="butt" stroke-miterlimit="4"/><path d=" M 758 756 L 1090 850 L 984 1058 L 758 756 Z " fill="rgb(225,102,15)" vector-effect="non-scaling-stroke" stroke-width="1.51" stroke="rgb(225,102,15)" stroke-linejoin="miter" stroke-linecap="butt" stroke-miterlimit="4"/><path d=" M 1237 1515 L 1000 1618 L 1026 1277 L 1237 1515 Z " fill="rgb(244,141,39)" vector-effect="non-scaling-stroke" stroke-width="1.51" stroke="rgb(244,141,39)" stroke-linejoin="miter" stroke-linecap="butt" stroke-miterlimit="4"/><path d=" M 1026 1277 L 1000 1618 L 724 1394 L 1026 1277 Z " fill="rgb(249,148,41)" vector-effect="non-scaling-stroke" stroke-width="1.51" stroke="rgb(249,148,41)" stroke-linejoin="miter" stroke-linecap="butt" stroke-miterlimit="4"/><path d=" M 652 1188 L 758 756 L 984 1058 L 652 1188 Z " fill="rgb(236,120,24)" vector-effect="non-scaling-stroke" stroke-width="1.51" stroke="rgb(236,120,24)" stroke-linejoin="miter" stroke-linecap="butt" stroke-miterlimit="4"/><path d=" M 724 1394 L 463 1452 L 652 1188 L 724 1394 Z " fill="rgb(255,160,48)" vector-effect="non-scaling-stroke" stroke-width="1.51" stroke="rgb(255,160,48)" stroke-linejoin="miter" stroke-linecap="butt" stroke-miterlimit="4"/><path d=" M 652 1188 L 367 1066 L 758 756 L 652 1188 Z " fill="rgb(240,135,36)" vector-effect="non-scaling-stroke" stroke-width="1.51" stroke="rgb(240,135,36)" stroke-linejoin="miter" stroke-linecap="butt" stroke-miterlimit="4"/><path d=" M 451 1558 L 463 1452 L 724 1394 L 451 1558 Z " fill="rgb(255,176,61)" vector-effect="non-scaling-stroke" stroke-width="1.51" stroke="rgb(255,176,61)" stroke-linejoin="miter" stroke-linecap="butt" stroke-miterlimit="4"/><path d=" M 463 1452 L 367 1066 L 652 1188 L 463 1452 Z " fill="rgb(251,159,51)" vector-effect="non-scaling-stroke" stroke-width="1.51" stroke="rgb(251,159,51)" stroke-linejoin="miter" stroke-linecap="butt" stroke-miterlimit="4"/><path d=" M 1354 1275 L 1237 1515 L 1026 1277 L 1354 1275 Z " fill="rgb(237,124,27)" vector-effect="non-scaling-stroke" stroke-width="1.51" stroke="rgb(237,124,27)" stroke-linejoin="miter" stroke-linecap="butt" stroke-miterlimit="4"/><path d=" M 1339 1050 L 1026 1277 L 984 1058 L 1339 1050 Z " fill="rgb(233,110,19)" vector-effect="non-scaling-stroke" stroke-width="1.51" stroke="rgb(233,110,19)" stroke-linejoin="miter" stroke-linecap="butt" stroke-miterlimit="4"/><path d=" M 1090 850 L 1339 1050 L 984 1058 L 1090 850 Z " fill="rgb(223,98,13)" vector-effect="non-scaling-stroke" stroke-width="1.51" stroke="rgb(223,98,13)" stroke-linejoin="miter" stroke-linecap="butt" stroke-miterlimit="4"/><path d=" M 806 1604 L 451 1558 L 724 1394 L 806 1604 Z " fill="rgb(255,172,59)" vector-effect="non-scaling-stroke" stroke-width="1.51" stroke="rgb(255,172,59)" stroke-linejoin="miter" stroke-linecap="butt" stroke-miterlimit="4"/><path d=" M 463 1452 L 223 1266 L 367 1066 L 463 1452 Z " fill="rgb(252,170,64)" vector-effect="non-scaling-stroke" stroke-width="1.51" stroke="rgb(252,170,64)" stroke-linejoin="miter" stroke-linecap="butt" stroke-miterlimit="4"/><path d=" M 367 1066 L 529 688 L 758 756 L 367 1066 Z " fill="rgb(228,126,33)" vector-effect="non-scaling-stroke" stroke-width="1.51" stroke="rgb(228,126,33)" stroke-linejoin="miter" stroke-linecap="butt" stroke-miterlimit="4"/><path d=" M 203 1684 L 223 1266 L 463 1452 L 203 1684 Z " fill="rgb(255,191,82)" vector-effect="non-scaling-stroke" stroke-width="1.51" stroke="rgb(255,191,82)" stroke-linejoin="miter" stroke-linecap="butt" stroke-miterlimit="4"/><path d=" M 367 1066 L 246 952 L 529 688 L 367 1066 Z " fill="rgb(234,142,47)" vector-effect="non-scaling-stroke" stroke-width="1.51" stroke="rgb(234,142,47)" stroke-linejoin="miter" stroke-linecap="butt" stroke-miterlimit="4"/><path d=" M 1090 850 L 1343 690 L 1339 1050 L 1090 850 Z " fill="rgb(209,82,4)" vector-effect="non-scaling-stroke" stroke-width="1.51" stroke="rgb(209,82,4)" stroke-linejoin="miter" stroke-linecap="butt" stroke-miterlimit="4"/><path d=" M 223 1266 L 246 952 L 367 1066 L 223 1266 Z " fill="rgb(247,161,65)" vector-effect="non-scaling-stroke" stroke-width="1.51" stroke="rgb(247,161,65)" stroke-linejoin="miter" stroke-linecap="butt" stroke-miterlimit="4"/><path d=" M 806 1604 L 438 1854 L 451 1558 L 806 1604 Z " fill="rgb(255,190,80)" vector-effect="non-scaling-stroke" stroke-width="1.51" stroke="rgb(255,190,80)" stroke-linejoin="miter" stroke-linecap="butt" stroke-miterlimit="4"/><path d=" M 1000 1618 L 809 1875 L 806 1604 L 1000 1618 Z " fill="rgb(252,172,71)" vector-effect="non-scaling-stroke" stroke-width="1.51" stroke="rgb(252,172,71)" stroke-linejoin="miter" stroke-linecap="butt" stroke-miterlimit="4"/><path d=" M 1089 2018 L 809 1875 L 1000 1618 L 1089 2018 Z " fill="rgb(251,174,87)" vector-effect="non-scaling-stroke" stroke-width="1.51" stroke="rgb(251,174,87)" stroke-linejoin="miter" stroke-linecap="butt" stroke-miterlimit="4"/><path d=" M 246 952 L 209 897 L 529 688 L 246 952 Z " fill="rgb(230,141,52)" vector-effect="non-scaling-stroke" stroke-width="1.51" stroke="rgb(230,141,52)" stroke-linejoin="miter" stroke-linecap="butt" stroke-miterlimit="4"/><path d=" M -22 802 L 209 897 L -184 1140 L -22 802 Z " fill="rgb(240,162,86)" vector-effect="non-scaling-stroke" stroke-width="1.51" stroke="rgb(240,162,86)" stroke-linejoin="miter" stroke-linecap="butt" stroke-miterlimit="4"/><path d=" M 1339 1050 L 1558 1182 L 1354 1275 L 1339 1050 Z " fill="rgb(217,97,14)" vector-effect="non-scaling-stroke" stroke-width="1.51" stroke="rgb(217,97,14)" stroke-linejoin="miter" stroke-linecap="butt" stroke-miterlimit="4"/><path d=" M 1354 1275 L 1585 1408 L 1237 1515 L 1354 1275 Z " fill="rgb(226,118,26)" vector-effect="non-scaling-stroke" stroke-width="1.51" stroke="rgb(226,118,26)" stroke-linejoin="miter" stroke-linecap="butt" stroke-miterlimit="4"/><path d=" M 1667 747 L 1558 1182 L 1339 1050 L 1667 747 Z " fill="rgb(198,79,7)" vector-effect="non-scaling-stroke" stroke-width="1.51" stroke="rgb(198,79,7)" stroke-linejoin="miter" stroke-linecap="butt" stroke-miterlimit="4"/><path d=" M 1558 1182 L 1585 1408 L 1354 1275 L 1558 1182 Z " fill="rgb(215,104,19)" vector-effect="non-scaling-stroke" stroke-width="1.51" stroke="rgb(215,104,19)" stroke-linejoin="miter" stroke-linecap="butt" stroke-miterlimit="4"/><path d=" M 1322 1951 L 1089 2018 L 1000 1618 L 1322 1951 Z " fill="rgb(245,166,85)" vector-effect="non-scaling-stroke" stroke-width="1.51" stroke="rgb(245,166,85)" stroke-linejoin="miter" stroke-linecap="butt" stroke-miterlimit="4"/><path d=" M 1343 690 L 1667 747 L 1339 1050 L 1343 690 Z " fill="rgb(193,70,3)" vector-effect="non-scaling-stroke" stroke-width="1.51" stroke="rgb(193,70,3)" stroke-linejoin="miter" stroke-linecap="butt" stroke-miterlimit="4"/><path d=" M 451 1558 L 203 1684 L 463 1452 L 451 1558 Z " fill="rgb(254,195,80)" vector-effect="non-scaling-stroke" stroke-width="1.51" stroke="rgb(254,195,80)" stroke-linejoin="miter" stroke-linecap="butt" stroke-miterlimit="4"/><path d=" M 809 1875 L 438 1854 L 806 1604 L 809 1875 Z " fill="rgb(255,189,89)" vector-effect="non-scaling-stroke" stroke-width="1.51" stroke="rgb(255,189,89)" stroke-linejoin="miter" stroke-linecap="butt" stroke-miterlimit="4"/><path d=" M -184 1140 L 209 897 L 246 952 L -184 1140 Z " fill="rgb(243,163,82)" vector-effect="non-scaling-stroke" stroke-width="1.51" stroke="rgb(243,163,82)" stroke-linejoin="miter" stroke-linecap="butt" stroke-miterlimit="4"/><path d=" M 438 1854 L 203 1684 L 451 1558 L 438 1854 Z " fill="rgb(255,204,98)" vector-effect="non-scaling-stroke" stroke-width="1.51" stroke="rgb(255,204,98)" stroke-linejoin="miter" stroke-linecap="butt" stroke-miterlimit="4"/><path d=" M 1322 1951 L 1000 1618 L 1237 1515 L 1322 1951 Z " fill="rgb(241,153,61)" vector-effect="non-scaling-stroke" stroke-width="1.51" stroke="rgb(241,153,61)" stroke-linejoin="miter" stroke-linecap="butt" stroke-miterlimit="4"/><path d=" M 1585 1408 L 1630 1578 L 1237 1515 L 1585 1408 Z " fill="rgb(219,124,35)" vector-effect="non-scaling-stroke" stroke-width="1.51" stroke="rgb(219,124,35)" stroke-linejoin="miter" stroke-linecap="butt" stroke-miterlimit="4"/><path d=" M 1630 1578 L 1322 1951 L 1237 1515 L 1630 1578 Z " fill="rgb(229,142,55)" vector-effect="non-scaling-stroke" stroke-width="1.51" stroke="rgb(229,142,55)" stroke-linejoin="miter" stroke-linecap="butt" stroke-miterlimit="4"/><path d=" M 438 1854 L 169 1879 L 203 1684 L 438 1854 Z " fill="rgb(255,215,122)" vector-effect="non-scaling-stroke" stroke-width="1.51" stroke="rgb(255,215,122)" stroke-linejoin="miter" stroke-linecap="butt" stroke-miterlimit="4"/><path d=" M 209 897 L 41 584 L 529 688 L 209 897 Z " fill="rgb(218,137,57)" vector-effect="non-scaling-stroke" stroke-width="1.51" stroke="rgb(218,137,57)" stroke-linejoin="miter" stroke-linecap="butt" stroke-miterlimit="4"/><path d=" M -184 1140 L 246 952 L 223 1266 L -184 1140 Z " fill="rgb(250,172,86)" vector-effect="non-scaling-stroke" stroke-width="1.51" stroke="rgb(250,172,86)" stroke-linejoin="miter" stroke-linecap="butt" stroke-miterlimit="4"/><path d=" M 203 1684 L -129 1401 L 223 1266 L 203 1684 Z " fill="rgb(255,199,101)" vector-effect="non-scaling-stroke" stroke-width="1.51" stroke="rgb(255,199,101)" stroke-linejoin="miter" stroke-linecap="butt" stroke-miterlimit="4"/><path d=" M -62 1686 L -129 1401 L 203 1684 L -62 1686 Z " fill="rgb(255,213,118)" vector-effect="non-scaling-stroke" stroke-width="1.51" stroke="rgb(255,213,118)" stroke-linejoin="miter" stroke-linecap="butt" stroke-miterlimit="4"/><path d=" M -22 802 L 41 584 L 209 897 L -22 802 Z " fill="rgb(223,148,77)" vector-effect="non-scaling-stroke" stroke-width="1.51" stroke="rgb(223,148,77)" stroke-linejoin="miter" stroke-linecap="butt" stroke-miterlimit="4"/><path d=" M 169 1879 L -62 1686 L 203 1684 L 169 1879 Z " fill="rgb(255,220,132)" vector-effect="non-scaling-stroke" stroke-width="1.51" stroke="rgb(255,220,132)" stroke-linejoin="miter" stroke-linecap="butt" stroke-miterlimit="4"/><path d=" M -129 1401 L -184 1140 L 223 1266 L -129 1401 Z " fill="rgb(255,187,100)" vector-effect="non-scaling-stroke" stroke-width="1.51" stroke="rgb(255,187,100)" stroke-linejoin="miter" stroke-linecap="butt" stroke-miterlimit="4"/><path d=" M 1619 1987 L 1322 1951 L 1630 1578 L 1619 1987 Z " fill="rgb(219,146,74)" vector-effect="non-scaling-stroke" stroke-width="1.51" stroke="rgb(219,146,74)" stroke-linejoin="miter" stroke-linecap="butt" stroke-miterlimit="4"/><path d=" M 169 1879 L -160 1917 L -62 1686 L 169 1879 Z " fill="rgb(255,229,150)" vector-effect="non-scaling-stroke" stroke-width="1.51" stroke="rgb(255,229,150)" stroke-linejoin="miter" stroke-linecap="butt" stroke-miterlimit="4"/></g><rect x="1437" y="900" width="1440" height="900" transform="matrix(-1,0,0,-1,4314,2700)" fill="rgb(235,235,235)"/><clipPath id="_clipPath_CFSBNglAEnSdMeyzw0ksLXDDR7g6wIhP"><rect x="1437" y="900" width="1440" height="900" transform="matrix(-1,0,0,-1,4314,2700)" fill="rgb(235,235,235)"/></clipPath><g clip-path="url(#_clipPath_CFSBNglAEnSdMeyzw0ksLXDDR7g6wIhP)"><path d=" M 1893 1058 L 1851 1277 L 2225 1188 L 1893 1058 Z " fill="rgb(243,128,28)" vector-effect="non-scaling-stroke" stroke-width="1.51" stroke="rgb(243,128,28)" stroke-linejoin="miter" stroke-linecap="butt" stroke-miterlimit="4"/><path d=" M 1851 1277 L 2153 1394 L 2225 1188 L 1851 1277 Z " fill="rgb(249,143,36)" vector-effect="non-scaling-stroke" stroke-width="1.51" stroke="rgb(249,143,36)" stroke-linejoin="miter" stroke-linecap="butt" stroke-miterlimit="4"/><path d=" M 1877 1618 L 2071 1604 L 2153 1394 L 1877 1618 Z " fill="rgb(251,162,53)" vector-effect="non-scaling-stroke" stroke-width="1.51" stroke="rgb(251,162,53)" stroke-linejoin="miter" stroke-linecap="butt" stroke-miterlimit="4"/><path d=" M 1538 1050 L 1523 1275 L 1851 1277 L 1538 1050 Z " fill="rgb(229,109,18)" vector-effect="non-scaling-stroke" stroke-width="1.51" stroke="rgb(229,109,18)" stroke-linejoin="miter" stroke-linecap="butt" stroke-miterlimit="4"/><path d=" M 2119 756 L 1787 850 L 1893 1058 L 2119 756 Z " fill="rgb(225,102,15)" vector-effect="non-scaling-stroke" stroke-width="1.51" stroke="rgb(225,102,15)" stroke-linejoin="miter" stroke-linecap="butt" stroke-miterlimit="4"/><path d=" M 1640 1515 L 1877 1618 L 1851 1277 L 1640 1515 Z " fill="rgb(244,141,39)" vector-effect="non-scaling-stroke" stroke-width="1.51" stroke="rgb(244,141,39)" stroke-linejoin="miter" stroke-linecap="butt" stroke-miterlimit="4"/><path d=" M 1851 1277 L 1877 1618 L 2153 1394 L 1851 1277 Z " fill="rgb(249,148,41)" vector-effect="non-scaling-stroke" stroke-width="1.51" stroke="rgb(249,148,41)" stroke-linejoin="miter" stroke-linecap="butt" stroke-miterlimit="4"/><path d=" M 2225 1188 L 2119 756 L 1893 1058 L 2225 1188 Z " fill="rgb(236,120,24)" vector-effect="non-scaling-stroke" stroke-width="1.51" stroke="rgb(236,120,24)" stroke-linejoin="miter" stroke-linecap="butt" stroke-miterlimit="4"/><path d=" M 2153 1394 L 2414 1452 L 2225 1188 L 2153 1394 Z " fill="rgb(255,160,48)" vector-effect="non-scaling-stroke" stroke-width="1.51" stroke="rgb(255,160,48)" stroke-linejoin="miter" stroke-linecap="butt" stroke-miterlimit="4"/><path d=" M 2225 1188 L 2510 1066 L 2119 756 L 2225 1188 Z " fill="rgb(240,135,36)" vector-effect="non-scaling-stroke" stroke-width="1.51" stroke="rgb(240,135,36)" stroke-linejoin="miter" stroke-linecap="butt" stroke-miterlimit="4"/><path d=" M 2426 1558 L 2414 1452 L 2153 1394 L 2426 1558 Z " fill="rgb(255,176,61)" vector-effect="non-scaling-stroke" stroke-width="1.51" stroke="rgb(255,176,61)" stroke-linejoin="miter" stroke-linecap="butt" stroke-miterlimit="4"/><path d=" M 2414 1452 L 2510 1066 L 2225 1188 L 2414 1452 Z " fill="rgb(251,159,51)" vector-effect="non-scaling-stroke" stroke-width="1.51" stroke="rgb(251,159,51)" stroke-linejoin="miter" stroke-linecap="butt" stroke-miterlimit="4"/><path d=" M 1523 1275 L 1640 1515 L 1851 1277 L 1523 1275 Z " fill="rgb(237,124,27)" vector-effect="non-scaling-stroke" stroke-width="1.51" stroke="rgb(237,124,27)" stroke-linejoin="miter" stroke-linecap="butt" stroke-miterlimit="4"/><path d=" M 1538 1050 L 1851 1277 L 1893 1058 L 1538 1050 Z " fill="rgb(233,110,19)" vector-effect="non-scaling-stroke" stroke-width="1.51" stroke="rgb(233,110,19)" stroke-linejoin="miter" stroke-linecap="butt" stroke-miterlimit="4"/><path d=" M 1787 850 L 1538 1050 L 1893 1058 L 1787 850 Z " fill="rgb(223,98,13)" vector-effect="non-scaling-stroke" stroke-width="1.51" stroke="rgb(223,98,13)" stroke-linejoin="miter" stroke-linecap="butt" stroke-miterlimit="4"/><path d=" M 2071 1604 L 2426 1558 L 2153 1394 L 2071 1604 Z " fill="rgb(255,172,59)" vector-effect="non-scaling-stroke" stroke-width="1.51" stroke="rgb(255,172,59)" stroke-linejoin="miter" stroke-linecap="butt" stroke-miterlimit="4"/><path d=" M 2414 1452 L 2654 1266 L 2510 1066 L 2414 1452 Z " fill="rgb(252,170,64)" vector-effect="non-scaling-stroke" stroke-width="1.51" stroke="rgb(252,170,64)" stroke-linejoin="miter" stroke-linecap="butt" stroke-miterlimit="4"/><path d=" M 2510 1066 L 2348 688 L 2119 756 L 2510 1066 Z " fill="rgb(228,126,33)" vector-effect="non-scaling-stroke" stroke-width="1.51" stroke="rgb(228,126,33)" stroke-linejoin="miter" stroke-linecap="butt" stroke-miterlimit="4"/><path d=" M 2674 1684 L 2654 1266 L 2414 1452 L 2674 1684 Z " fill="rgb(255,191,82)" vector-effect="non-scaling-stroke" stroke-width="1.51" stroke="rgb(255,191,82)" stroke-linejoin="miter" stroke-linecap="butt" stroke-miterlimit="4"/><path d=" M 2510 1066 L 2631 952 L 2348 688 L 2510 1066 Z " fill="rgb(234,142,47)" vector-effect="non-scaling-stroke" stroke-width="1.51" stroke="rgb(234,142,47)" stroke-linejoin="miter" stroke-linecap="butt" stroke-miterlimit="4"/><path d=" M 1787 850 L 1534 690 L 1538 1050 L 1787 850 Z " fill="rgb(209,82,4)" vector-effect="non-scaling-stroke" stroke-width="1.51" stroke="rgb(209,82,4)" stroke-linejoin="miter" stroke-linecap="butt" stroke-miterlimit="4"/><path d=" M 2654 1266 L 2631 952 L 2510 1066 L 2654 1266 Z " fill="rgb(247,161,65)" vector-effect="non-scaling-stroke" stroke-width="1.51" stroke="rgb(247,161,65)" stroke-linejoin="miter" stroke-linecap="butt" stroke-miterlimit="4"/><path d=" M 2071 1604 L 2439 1854 L 2426 1558 L 2071 1604 Z " fill="rgb(255,190,80)" vector-effect="non-scaling-stroke" stroke-width="1.51" stroke="rgb(255,190,80)" stroke-linejoin="miter" stroke-linecap="butt" stroke-miterlimit="4"/><path d=" M 1877 1618 L 2068 1875 L 2071 1604 L 1877 1618 Z " fill="rgb(252,172,71)" vector-effect="non-scaling-stroke" stroke-width="1.51" stroke="rgb(252,172,71)" stroke-linejoin="miter" stroke-linecap="butt" stroke-miterlimit="4"/><path d=" M 1788 2018 L 2068 1875 L 1877 1618 L 1788 2018 Z " fill="rgb(251,174,87)" vector-effect="non-scaling-stroke" stroke-width="1.51" stroke="rgb(251,174,87)" stroke-linejoin="miter" stroke-linecap="butt" stroke-miterlimit="4"/><path d=" M 2631 952 L 2668 897 L 2348 688 L 2631 952 Z " fill="rgb(230,141,52)" vector-effect="non-scaling-stroke" stroke-width="1.51" stroke="rgb(230,141,52)" stroke-linejoin="miter" stroke-linecap="butt" stroke-miterlimit="4"/><path d=" M 2899 802 L 2668 897 L 3061 1140 L 2899 802 Z " fill="rgb(240,162,86)" vector-effect="non-scaling-stroke" stroke-width="1.51" stroke="rgb(240,162,86)" stroke-linejoin="miter" stroke-linecap="butt" stroke-miterlimit="4"/><path d=" M 1538 1050 L 1319 1182 L 1523 1275 L 1538 1050 Z " fill="rgb(217,97,14)" vector-effect="non-scaling-stroke" stroke-width="1.51" stroke="rgb(217,97,14)" stroke-linejoin="miter" stroke-linecap="butt" stroke-miterlimit="4"/><path d=" M 1523 1275 L 1292 1408 L 1640 1515 L 1523 1275 Z " fill="rgb(226,118,26)" vector-effect="non-scaling-stroke" stroke-width="1.51" stroke="rgb(226,118,26)" stroke-linejoin="miter" stroke-linecap="butt" stroke-miterlimit="4"/><path d=" M 1210 747 L 1319 1182 L 1538 1050 L 1210 747 Z " fill="rgb(198,79,7)" vector-effect="non-scaling-stroke" stroke-width="1.51" stroke="rgb(198,79,7)" stroke-linejoin="miter" stroke-linecap="butt" stroke-miterlimit="4"/><path d=" M 1319 1182 L 1292 1408 L 1523 1275 L 1319 1182 Z " fill="rgb(215,104,19)" vector-effect="non-scaling-stroke" stroke-width="1.51" stroke="rgb(215,104,19)" stroke-linejoin="miter" stroke-linecap="butt" stroke-miterlimit="4"/><path d=" M 1555 1951 L 1788 2018 L 1877 1618 L 1555 1951 Z " fill="rgb(245,166,85)" vector-effect="non-scaling-stroke" stroke-width="1.51" stroke="rgb(245,166,85)" stroke-linejoin="miter" stroke-linecap="butt" stroke-miterlimit="4"/><path d=" M 1534 690 L 1210 747 L 1538 1050 L 1534 690 Z " fill="rgb(193,70,3)" vector-effect="non-scaling-stroke" stroke-width="1.51" stroke="rgb(193,70,3)" stroke-linejoin="miter" stroke-linecap="butt" stroke-miterlimit="4"/><path d=" M 2426 1558 L 2674 1684 L 2414 1452 L 2426 1558 Z " fill="rgb(254,195,80)" vector-effect="non-scaling-stroke" stroke-width="1.51" stroke="rgb(254,195,80)" stroke-linejoin="miter" stroke-linecap="butt" stroke-miterlimit="4"/><path d=" M 2068 1875 L 2439 1854 L 2071 1604 L 2068 1875 Z " fill="rgb(255,189,89)" vector-effect="non-scaling-stroke" stroke-width="1.51" stroke="rgb(255,189,89)" stroke-linejoin="miter" stroke-linecap="butt" stroke-miterlimit="4"/><path d=" M 3061 1140 L 2668 897 L 2631 952 L 3061 1140 Z " fill="rgb(243,163,82)" vector-effect="non-scaling-stroke" stroke-width="1.51" stroke="rgb(243,163,82)" stroke-linejoin="miter" stroke-linecap="butt" stroke-miterlimit="4"/><path d=" M 2439 1854 L 2674 1684 L 2426 1558 L 2439 1854 Z " fill="rgb(255,204,98)" vector-effect="non-scaling-stroke" stroke-width="1.51" stroke="rgb(255,204,98)" stroke-linejoin="miter" stroke-linecap="butt" stroke-miterlimit="4"/><path d=" M 1555 1951 L 1877 1618 L 1640 1515 L 1555 1951 Z " fill="rgb(241,153,61)" vector-effect="non-scaling-stroke" stroke-width="1.51" stroke="rgb(241,153,61)" stroke-linejoin="miter" stroke-linecap="butt" stroke-miterlimit="4"/><path d=" M 1292 1408 L 1247 1578 L 1640 1515 L 1292 1408 Z " fill="rgb(219,124,35)" vector-effect="non-scaling-stroke" stroke-width="1.51" stroke="rgb(219,124,35)" stroke-linejoin="miter" stroke-linecap="butt" stroke-miterlimit="4"/><path d=" M 1247 1578 L 1555 1951 L 1640 1515 L 1247 1578 Z " fill="rgb(229,142,55)" vector-effect="non-scaling-stroke" stroke-width="1.51" stroke="rgb(229,142,55)" stroke-linejoin="miter" stroke-linecap="butt" stroke-miterlimit="4"/><path d=" M 2439 1854 L 2708 1879 L 2674 1684 L 2439 1854 Z " fill="rgb(255,215,122)" vector-effect="non-scaling-stroke" stroke-width="1.51" stroke="rgb(255,215,122)" stroke-linejoin="miter" stroke-linecap="butt" stroke-miterlimit="4"/><path d=" M 2668 897 L 2836 584 L 2348 688 L 2668 897 Z " fill="rgb(218,137,57)" vector-effect="non-scaling-stroke" stroke-width="1.51" stroke="rgb(218,137,57)" stroke-linejoin="miter" stroke-linecap="butt" stroke-miterlimit="4"/><path d=" M 3061 1140 L 2631 952 L 2654 1266 L 3061 1140 Z " fill="rgb(250,172,86)" vector-effect="non-scaling-stroke" stroke-width="1.51" stroke="rgb(250,172,86)" stroke-linejoin="miter" stroke-linecap="butt" stroke-miterlimit="4"/><path d=" M 2674 1684 L 3006 1401 L 2654 1266 L 2674 1684 Z " fill="rgb(255,199,101)" vector-effect="non-scaling-stroke" stroke-width="1.51" stroke="rgb(255,199,101)" stroke-linejoin="miter" stroke-linecap="butt" stroke-miterlimit="4"/><path d=" M 2939 1686 L 3006 1401 L 2674 1684 L 2939 1686 Z " fill="rgb(255,213,118)" vector-effect="non-scaling-stroke" stroke-width="1.51" stroke="rgb(255,213,118)" stroke-linejoin="miter" stroke-linecap="butt" stroke-miterlimit="4"/><path d=" M 2899 802 L 2836 584 L 2668 897 L 2899 802 Z " fill="rgb(223,148,77)" vector-effect="non-scaling-stroke" stroke-width="1.51" stroke="rgb(223,148,77)" stroke-linejoin="miter" stroke-linecap="butt" stroke-miterlimit="4"/><path d=" M 2708 1879 L 2939 1686 L 2674 1684 L 2708 1879 Z " fill="rgb(255,220,132)" vector-effect="non-scaling-stroke" stroke-width="1.51" stroke="rgb(255,220,132)" stroke-linejoin="miter" stroke-linecap="butt" stroke-miterlimit="4"/><path d=" M 3006 1401 L 3061 1140 L 2654 1266 L 3006 1401 Z " fill="rgb(255,187,100)" vector-effect="non-scaling-stroke" stroke-width="1.51" stroke="rgb(255,187,100)" stroke-linejoin="miter" stroke-linecap="butt" stroke-miterlimit="4"/><path d=" M 1258 1987 L 1555 1951 L 1247 1578 L 1258 1987 Z " fill="rgb(219,146,74)" vector-effect="non-scaling-stroke" stroke-width="1.51" stroke="rgb(219,146,74)" stroke-linejoin="miter" stroke-linecap="butt" stroke-miterlimit="4"/><path d=" M 2708 1879 L 3037 1917 L 2939 1686 L 2708 1879 Z " fill="rgb(255,229,150)" vector-effect="non-scaling-stroke" stroke-width="1.51" stroke="rgb(255,229,150)" stroke-linejoin="miter" stroke-linecap="butt" stroke-miterlimit="4"/></g></g></svg>