<svg xmlns="http://www.w3.org/2000/svg" width="1440" height="900"><path d="M984,742L1026,523L652,612Z" fill="#f3801c" stroke="#f3801c" stroke-width="1.51"/><path d="M1026,523L724,406L652,612Z" fill="#f98f24" stroke="#f98f24" stroke-width="1.51"/><path d="M1000,182L806,196L724,406Z" fill="#fba235" stroke="#fba235" stroke-width="1.51"/><path d="M1339,750L1354,525L1026,523Z" fill="#e56d12" stroke="#e56d12" stroke-width="1.51"/><path d="M758,1044L1090,950L984,742Z" fill="#e1660f" stroke="#e1660f" stroke-width="1.51"/><path d="M1237,285L1000,182L1026,523Z" fill="#f48d27" stroke="#f48d27" stroke-width="1.51"/><path d="M1026,523L1000,182L724,406Z" fill="#f99429" stroke="#f99429" stroke-width="1.51"/><path d="M652,612L758,1044L984,742Z" fill="#ec7818" stroke="#ec7818" stroke-width="1.51"/><path d="M724,406L463,348L652,612Z" fill="#ffa030" stroke="#ffa030" stroke-width="1.51"/><path d="M652,612L367,734L758,1044Z" fill="#f08724" stroke="#f08724" stroke-width="1.51"/><path d="M451,242L463,348L724,406Z" fill="#ffb03d" stroke="#ffb03d" stroke-width="1.51"/><path d="M463,348L367,734L652,612Z" fill="#fb9f33" stroke="#fb9f33" stroke-width="1.51"/><path d="M1354,525L1237,285L1026,523Z" fill="#ed7c1b" stroke="#ed7c1b" stroke-width="1.51"/><path d="M1339,750L1026,523L984,742Z" fill="#e96e13" stroke="#e96e13" stroke-width="1.51"/><path d="M1090,950L1339,750L984,742Z" fill="#df620d" stroke="#df620d" stroke-width="1.51"/><path d="M806,196L451,242L724,406Z" fill="#ffac3b" stroke="#ffac3b" stroke-width="1.51"/><path d="M463,348L223,534L367,734Z" fill="#fcaa40" stroke="#fcaa40" stroke-width="1.51"/><path d="M758,1044L1076,1207L1090,950Z" fill="#d15c0d" stroke="#d15c0d" stroke-width="1.51"/><path d="M367,734L529,1112L758,1044Z" fill="#e47e21" stroke="#e47e21" stroke-width="1.51"/><path d="M203,116L223,534L463,348Z" fill="#ffbf52" stroke="#ffbf52" stroke-width="1.51"/><path d="M367,734L246,848L529,1112Z" fill="#ea8e2f" stroke="#ea8e2f" stroke-width="1.51"/><path d="M714,1248L1076,1207L758,1044Z" fill="#c95f12" stroke="#c95f12" stroke-width="1.51"/><path d="M1090,950L1343,1110L1339,750Z" fill="#d15204" stroke="#d15204" stroke-width="1.51"/><path d="M223,534L246,848L367,734Z" fill="#f7a141" stroke="#f7a141" stroke-width="1.51"/><path d="M529,1112L714,1248L758,1044Z" fill="#d16d19" stroke="#d16d19" stroke-width="1.51"/><path d="M806,196L438,-54L451,242Z" fill="#ffbe50" stroke="#ffbe50" stroke-width="1.51"/><path d="M1000,182L809,-75L806,196Z" fill="#fcac47" stroke="#fcac47" stroke-width="1.51"/><path d="M1089,-218L809,-75L1000,182Z" fill="#fbae57" stroke="#fbae57" stroke-width="1.51"/><path d="M246,848L209,903L529,1112Z" fill="#e68d34" stroke="#e68d34" stroke-width="1.51"/><path d="M529,1112L556,1356L714,1248Z" fill="#c66d1d" stroke="#c66d1d" stroke-width="1.51"/><path d="M-22,998L209,903L-184,660Z" fill="#f0a256" stroke="#f0a256" stroke-width="1.51"/><path d="M1076,1207L1343,1110L1090,950Z" fill="#c54f07" stroke="#c54f07" stroke-width="1.51"/><path d="M1339,750L1558,618L1354,525Z" fill="#d9610e" stroke="#d9610e" stroke-width="1.51"/><path d="M1354,525L1585,392L1237,285Z" fill="#e2761a" stroke="#e2761a" stroke-width="1.51"/><path d="M1667,1053L1558,618L1339,750Z" fill="#c64f07" stroke="#c64f07" stroke-width="1.51"/><path d="M1558,618L1585,392L1354,525Z" fill="#d76813" stroke="#d76813" stroke-width="1.51"/><path d="M1322,-151L1089,-218L1000,182Z" fill="#f5a655" stroke="#f5a655" stroke-width="1.51"/><path d="M1343,1110L1667,1053L1339,750Z" fill="#c14603" stroke="#c14603" stroke-width="1.51"/><path d="M1076,1207L1294,1229L1343,1110Z" fill="#b94606" stroke="#b94606" stroke-width="1.51"/><path d="M1270,1509L1294,1229L1076,1207Z" fill="#ab4308" stroke="#ab4308" stroke-width="1.51"/><path d="M451,242L203,116L463,348Z" fill="#fec350" stroke="#fec350" stroke-width="1.51"/><path d="M809,-75L438,-54L806,196Z" fill="#ffbd59" stroke="#ffbd59" stroke-width="1.51"/><path d="M-184,660L209,903L246,848Z" fill="#f3a352" stroke="#f3a352" stroke-width="1.51"/><path d="M438,-54L203,116L451,242Z" fill="#ffcc62" stroke="#ffcc62" stroke-width="1.51"/><path d="M714,1248L1032,1542L1076,1207Z" fill="#b45310" stroke="#b45310" stroke-width="1.51"/><path d="M41,1216L556,1356L529,1112Z" fill="#c87c2c" stroke="#c87c2c" stroke-width="1.51"/><path d="M809,-75L673,-284L438,-54Z" fill="#ffc86c" stroke="#ffc86c" stroke-width="1.51"/><path d="M1322,-151L1000,182L1237,285Z" fill="#f1993d" stroke="#f1993d" stroke-width="1.51"/><path d="M1585,392L1630,222L1237,285Z" fill="#db7c23" stroke="#db7c23" stroke-width="1.51"/><path d="M1804,497L1630,222L1585,392Z" fill="#cb6d1c" stroke="#cb6d1c" stroke-width="1.51"/><path d="M1630,222L1322,-151L1237,285Z" fill="#e58e37" stroke="#e58e37" stroke-width="1.51"/><path d="M438,-54L169,-79L203,116Z" fill="#ffd77a" stroke="#ffd77a" stroke-width="1.51"/><path d="M1089,-218L673,-284L809,-75Z" fill="#ffbb68" stroke="#ffbb68" stroke-width="1.51"/><path d="M1606,1230L1667,1053L1343,1110Z" fill="#a83b04" stroke="#a83b04" stroke-width="1.51"/><path d="M1558,618L1804,497L1585,392Z" fill="#ca6213" stroke="#ca6213" stroke-width="1.51"/><path d="M209,903L41,1216L529,1112Z" fill="#da8939" stroke="#da8939" stroke-width="1.51"/><path d="M-184,660L246,848L223,534Z" fill="#faac56" stroke="#faac56" stroke-width="1.51"/><path d="M1089,-218L1103,-320L673,-284Z" fill="#feb96d" stroke="#feb96d" stroke-width="1.51"/><path d="M1324,-321L1103,-320L1089,-218Z" fill="#f6ad67" stroke="#f6ad67" stroke-width="1.51"/><path d="M765,1641L1032,1542L714,1248Z" fill="#ac5513" stroke="#ac5513" stroke-width="1.51"/><path d="M1294,1229L1606,1230L1343,1110Z" fill="#ad3d04" stroke="#ad3d04" stroke-width="1.51"/><path d="M388,-475L169,-79L438,-54Z" fill="#ffdd87" stroke="#ffdd87" stroke-width="1.51"/><path d="M203,116L-129,399L223,534Z" fill="#ffc765" stroke="#ffc765" stroke-width="1.51"/><path d="M1802,764L1804,497L1558,618Z" fill="#c0560f" stroke="#c0560f" stroke-width="1.51"/><path d="M1780,901L1802,764L1558,618Z" fill="#b94c09" stroke="#b94c09" stroke-width="1.51"/><path d="M1667,1053L1780,901L1558,618Z" fill="#b84605" stroke="#b84605" stroke-width="1.51"/><path d="M1667,1053L1848,1313L1780,901Z" fill="#9b3605" stroke="#9b3605" stroke-width="1.51"/><path d="M1270,1509L1606,1230L1294,1229Z" fill="#a03a05" stroke="#a03a05" stroke-width="1.51"/><path d="M-62,114L-129,399L203,116Z" fill="#ffd576" stroke="#ffd576" stroke-width="1.51"/><path d="M1032,1542L1270,1509L1076,1207Z" fill="#a4450b" stroke="#a4450b" stroke-width="1.51"/><path d="M-22,998L41,1216L209,903Z" fill="#df944d" stroke="#df944d" stroke-width="1.51"/><path d="M556,1356L765,1641L714,1248Z" fill="#b16019" stroke="#b16019" stroke-width="1.51"/><path d="M169,-79L-62,114L203,116Z" fill="#ffdc84" stroke="#ffdc84" stroke-width="1.51"/><path d="M-190,1512L-5,1384L-428,1335Z" fill="#b78a5a" stroke="#b78a5a" stroke-width="1.51"/><path d="M-129,399L-184,660L223,534Z" fill="#ffbb64" stroke="#ffbb64" stroke-width="1.51"/><path d="M1322,-151L1324,-321L1089,-218Z" fill="#f2a660" stroke="#f2a660" stroke-width="1.51"/><path d="M1619,-187L1324,-321L1322,-151Z" fill="#e69d5c" stroke="#e69d5c" stroke-width="1.51"/><path d="M1619,-187L1322,-151L1630,222Z" fill="#db924a" stroke="#db924a" stroke-width="1.51"/><path d="M1032,1542L1452,1691L1270,1509Z" fill="#9c3e09" stroke="#9c3e09" stroke-width="1.51"/><path d="M506,1648L765,1641L556,1356Z" fill="#b0641d" stroke="#b0641d" stroke-width="1.51"/><path d="M72,1526L506,1648L556,1356Z" fill="#b0732b" stroke="#b0732b" stroke-width="1.51"/><path d="M1758,-218L1619,-187L1630,222Z" fill="#cf8c4b" stroke="#cf8c4b" stroke-width="1.51"/><path d="M-5,1384L41,1216L-428,1335Z" fill="#c38c57" stroke="#c38c57" stroke-width="1.51"/><path d="M41,1216L72,1526L556,1356Z" fill="#b97d3b" stroke="#b97d3b" stroke-width="1.51"/><path d="M169,-79L-160,-117L-62,114Z" fill="#ffe596" stroke="#ffe596" stroke-width="1.51"/><path d="M673,-284L388,-475L438,-54Z" fill="#ffd680" stroke="#ffd680" stroke-width="1.51"/><path d="M1103,-320L388,-475L673,-284Z" fill="#ffc97b" stroke="#ffc97b" stroke-width="1.51"/><path d="M1568,-470L388,-475L1103,-320Z" fill="#ffb776" stroke="#ffb776" stroke-width="1.51"/><path d="M1804,497L1957,106L1630,222Z" fill="#c17223" stroke="#c17223" stroke-width="1.51"/><path d="M1802,764L2023,644L1804,497Z" fill="#b2510f" stroke="#b2510f" stroke-width="1.51"/><path d="M1780,901L2023,644L1802,764Z" fill="#ab470a" stroke="#ab470a" stroke-width="1.51"/><path d="M2202,1113L2023,644L1780,901Z" fill="#9b3c08" stroke="#9b3c08" stroke-width="1.51"/><path d="M-5,1384L72,1526L41,1216Z" fill="#ba844b" stroke="#ba844b" stroke-width="1.51"/><path d="M2049,350L1957,106L1804,497Z" fill="#b46921" stroke="#b46921" stroke-width="1.51"/><path d="M-129,399L-360,403L-184,660Z" fill="#ffc574" stroke="#ffc574" stroke-width="1.51"/><path d="M-184,660L-489,970L-22,998Z" fill="#f1a865" stroke="#f1a865" stroke-width="1.51"/><path d="M-317,120L-360,403L-129,399Z" fill="#ffd582" stroke="#ffd582" stroke-width="1.51"/><path d="M-317,120L-129,399L-62,114Z" fill="#ffdb82" stroke="#ffdb82" stroke-width="1.51"/><path d="M1957,106L1758,-218L1630,222Z" fill="#c4833f" stroke="#c4833f" stroke-width="1.51"/><path d="M1619,-187L1568,-470L1324,-321Z" fill="#e19d63" stroke="#e19d63" stroke-width="1.51"/><path d="M1606,1230L1848,1313L1667,1053Z" fill="#943305" stroke="#943305" stroke-width="1.51"/><path d="M1793,1629L1848,1313L1606,1230Z" fill="#7c2c06" stroke="#7c2c06" stroke-width="1.51"/><path d="M2023,644L2049,350L1804,497Z" fill="#b05a15" stroke="#b05a15" stroke-width="1.51"/><path d="M121,-422L-14,-274L169,-79Z" fill="#ffeca4" stroke="#ffeca4" stroke-width="1.51"/><path d="M-14,-274L-160,-117L169,-79Z" fill="#ffeaa1" stroke="#ffeaa1" stroke-width="1.51"/><path d="M506,1648L1452,1691L765,1641Z" fill="#aa5112" stroke="#aa5112" stroke-width="1.51"/><path d="M765,1641L1452,1691L1032,1542Z" fill="#a4470c" stroke="#a4470c" stroke-width="1.51"/><path d="M1270,1509L1452,1691L1606,1230Z" fill="#903506" stroke="#903506" stroke-width="1.51"/><path d="M-360,403L-402,693L-184,660Z" fill="#ffbe75" stroke="#ffbe75" stroke-width="1.51"/><path d="M-5,1384L-190,1512L72,1526Z" fill="#b38450" stroke="#b38450" stroke-width="1.51"/><path d="M-342,-337L-378,-92L-160,-117Z" fill="#fff3b7" stroke="#fff3b7" stroke-width="1.51"/><path d="M388,-475L121,-422L169,-79Z" fill="#ffe69c" stroke="#ffe69c" stroke-width="1.51"/><path d="M-160,-117L-317,120L-62,114Z" fill="#ffe699" stroke="#ffe699" stroke-width="1.51"/><path d="M1758,-218L1568,-470L1619,-187Z" fill="#d4965f" stroke="#d4965f" stroke-width="1.51"/><path d="M1324,-321L1568,-470L1103,-320Z" fill="#efa56a" stroke="#efa56a" stroke-width="1.51"/><path d="M2023,644L2154,272L2049,350Z" fill="#af5f19" stroke="#af5f19" stroke-width="1.51"/><path d="M2049,350L2154,272L1957,106Z" fill="#b06e26" stroke="#b06e26" stroke-width="1.51"/><path d="M2121,-441L1782,-460L1758,-218Z" fill="#be8e63" stroke="#be8e63" stroke-width="1.51"/><path d="M1758,-218L1782,-460L1568,-470Z" fill="#d09565" stroke="#d09565" stroke-width="1.51"/><path d="M2202,1113L2154,272L2023,644Z" fill="#a74a0f" stroke="#a74a0f" stroke-width="1.51"/><path d="M-428,1335L41,1216L-22,998Z" fill="#d29258" stroke="#d29258" stroke-width="1.51"/><path d="M72,1526L-484,1603L506,1648Z" fill="#b3824b" stroke="#b3824b" stroke-width="1.51"/><path d="M-402,693L-489,970L-184,660Z" fill="#f9b071" stroke="#f9b071" stroke-width="1.51"/><path d="M-360,403L-489,970L-402,693Z" fill="#ffb778" stroke="#ffb778" stroke-width="1.51"/><path d="M-378,-92L-489,970L-360,403Z" fill="#ffcc83" stroke="#ffcc83" stroke-width="1.51"/><path d="M1848,1313L2202,1113L1780,901Z" fill="#8a3106" stroke="#8a3106" stroke-width="1.51"/><path d="M1452,1691L1793,1629L1606,1230Z" fill="#832e06" stroke="#832e06" stroke-width="1.51"/><path d="M-317,120L-378,-92L-360,403Z" fill="#ffe397" stroke="#ffe397" stroke-width="1.51"/><path d="M-160,-117L-378,-92L-317,120Z" fill="#ffeda9" stroke="#ffeda9" stroke-width="1.51"/><path d="M-342,-337L-160,-117L-14,-274Z" fill="#fff3b4" stroke="#fff3b4" stroke-width="1.51"/><path d="M2206,-105L1758,-218L1957,106Z" fill="#b4824a" stroke="#b4824a" stroke-width="1.51"/><path d="M1793,1629L2061,1346L1848,1313Z" fill="#6d2706" stroke="#6d2706" stroke-width="1.51"/><path d="M2061,1346L2202,1113L1848,1313Z" fill="#782a06" stroke="#782a06" stroke-width="1.51"/><path d="M-489,970L-428,1335L-22,998Z" fill="#dd9b65" stroke="#dd9b65" stroke-width="1.51"/><path d="M388,-475L-342,-337L121,-422Z" fill="#fff0b3" stroke="#fff0b3" stroke-width="1.51"/><path d="M121,-422L-342,-337L-14,-274Z" fill="#fff3b7" stroke="#fff3b7" stroke-width="1.51"/><path d="M2202,1113L2206,-105L2154,272Z" fill="#af5f19" stroke="#af5f19" stroke-width="1.51"/><path d="M2154,272L2206,-105L1957,106Z" fill="#b17837" stroke="#b17837" stroke-width="1.51"/><path d="M2206,-105L2121,-441L1758,-218Z" fill="#b48859" stroke="#b48859" stroke-width="1.51"/><path d="M-489,970L-484,1603L-428,1335Z" fill="#c6926b" stroke="#c6926b" stroke-width="1.51"/><path d="M-428,1335L-484,1603L-190,1512Z" fill="#b58b64" stroke="#b58b64" stroke-width="1.51"/><path d="M-190,1512L-484,1603L72,1526Z" fill="#b4895a" stroke="#b4895a" stroke-width="1.51"/><path d="M1452,1691L2191,1674L1793,1629Z" fill="#732906" stroke="#732906" stroke-width="1.51"/><path d="M1793,1629L2191,1674L2061,1346Z" fill="#662506" stroke="#662506" stroke-width="1.51"/><path d="M2061,1346L2191,1674L2202,1113Z" fill="#6b2706" stroke="#6b2706" stroke-width="1.51"/></svg>