<?xml version="1.0" standalone="no"?><!-- Generator: Gravit.io --><svg xmlns="http://www.w3.org/2000/svg" xmlns:xlink="http://www.w3.org/1999/xlink" style="isolation:isolate" viewBox="0 0 1440 900" width="1440" height="900"><defs><clipPath id="_clipPath_yzYEqruSOqWsPbu7d1ap2o2PkjRoK5Np"><rect width="1440" height="900"/></clipPath></defs><g clip-path="url(#_clipPath_yzYEqruSOqWsPbu7d1ap2o2PkjRoK5Np)"><rect x="283.5" y="328" width="1429" height="874.5" transform="matrix(-1,0,0,-1,1996,1530.5)" fill="rgb(235,235,235)"/><path d=" M 733 474 L 691 693 L 1065 604 L 733 474 Z " fill="rgb(243,128,28)" vector-effect="non-scaling-stroke" stroke-width="1.51" stroke="rgb(243,128,28)" stroke-linejoin="miter" stroke-linecap="butt" stroke-miterlimit="4"/><path d=" M 691 693 L 993 810 L 1065 604 L 691 693 Z " fill="rgb(249,143,36)" vector-effect="non-scaling-stroke" stroke-width="1.51" stroke="rgb(249,143,36)" stroke-linejoin="miter" stroke-linecap="butt" stroke-miterlimit="4"/><path d=" M 717 1034 L 911 1020 L 993 810 L 717 1034 Z " fill="rgb(251,162,53)" vector-effect="non-scaling-stroke" stroke-width="1.51" stroke="rgb(251,162,53)" stroke-linejoin="miter" stroke-linecap="butt" stroke-miterlimit="4"/><path d=" M 378 466 L 363 691 L 691 693 L 378 466 Z " fill="rgb(229,109,18)" vector-effect="non-scaling-stroke" stroke-width="1.51" stroke="rgb(229,109,18)" stroke-linejoin="miter" stroke-linecap="butt" stroke-miterlimit="4"/><path d=" M 959 172 L 627 266 L 733 474 L 959 172 Z " fill="rgb(225,102,15)" vector-effect="non-scaling-stroke" stroke-width="1.51" stroke="rgb(225,102,15)" stroke-linejoin="miter" stroke-linecap="butt" stroke-miterlimit="4"/><path d=" M 480 931 L 717 1034 L 691 693 L 480 931 Z " fill="rgb(244,141,39)" vector-effect="non-scaling-stroke" stroke-width="1.51" stroke="rgb(244,141,39)" stroke-linejoin="miter" stroke-linecap="butt" stroke-miterlimit="4"/><path d=" M 691 693 L 717 1034 L 993 810 L 691 693 Z " fill="rgb(249,148,41)" vector-effect="non-scaling-stroke" stroke-width="1.51" stroke="rgb(249,148,41)" stroke-linejoin="miter" stroke-linecap="butt" stroke-miterlimit="4"/><path d=" M 1065 604 L 959 172 L 733 474 L 1065 604 Z " fill="rgb(236,120,24)" vector-effect="non-scaling-stroke" stroke-width="1.51" stroke="rgb(236,120,24)" stroke-linejoin="miter" stroke-linecap="butt" stroke-miterlimit="4"/><path d=" M 993 810 L 1254 868 L 1065 604 L 993 810 Z " fill="rgb(255,160,48)" vector-effect="non-scaling-stroke" stroke-width="1.51" stroke="rgb(255,160,48)" stroke-linejoin="miter" stroke-linecap="butt" stroke-miterlimit="4"/><path d=" M 1065 604 L 1350 482 L 959 172 L 1065 604 Z " fill="rgb(240,135,36)" vector-effect="non-scaling-stroke" stroke-width="1.51" stroke="rgb(240,135,36)" stroke-linejoin="miter" stroke-linecap="butt" stroke-miterlimit="4"/><path d=" M 1266 974 L 1254 868 L 993 810 L 1266 974 Z " fill="rgb(255,176,61)" vector-effect="non-scaling-stroke" stroke-width="1.51" stroke="rgb(255,176,61)" stroke-linejoin="miter" stroke-linecap="butt" stroke-miterlimit="4"/><path d=" M 1254 868 L 1350 482 L 1065 604 L 1254 868 Z " fill="rgb(251,159,51)" vector-effect="non-scaling-stroke" stroke-width="1.51" stroke="rgb(251,159,51)" stroke-linejoin="miter" stroke-linecap="butt" stroke-miterlimit="4"/><path d=" M 363 691 L 480 931 L 691 693 L 363 691 Z " fill="rgb(237,124,27)" vector-effect="non-scaling-stroke" stroke-width="1.51" stroke="rgb(237,124,27)" stroke-linejoin="miter" stroke-linecap="butt" stroke-miterlimit="4"/><path d=" M 378 466 L 691 693 L 733 474 L 378 466 Z " fill="rgb(233,110,19)" vector-effect="non-scaling-stroke" stroke-width="1.51" stroke="rgb(233,110,19)" stroke-linejoin="miter" stroke-linecap="butt" stroke-miterlimit="4"/><path d=" M 627 266 L 378 466 L 733 474 L 627 266 Z " fill="rgb(223,98,13)" vector-effect="non-scaling-stroke" stroke-width="1.51" stroke="rgb(223,98,13)" stroke-linejoin="miter" stroke-linecap="butt" stroke-miterlimit="4"/><path d=" M 911 1020 L 1266 974 L 993 810 L 911 1020 Z " fill="rgb(255,172,59)" vector-effect="non-scaling-stroke" stroke-width="1.51" stroke="rgb(255,172,59)" stroke-linejoin="miter" stroke-linecap="butt" stroke-miterlimit="4"/><path d=" M 1254 868 L 1494 682 L 1350 482 L 1254 868 Z " fill="rgb(252,170,64)" vector-effect="non-scaling-stroke" stroke-width="1.51" stroke="rgb(252,170,64)" stroke-linejoin="miter" stroke-linecap="butt" stroke-miterlimit="4"/><path d=" M 959 172 L 641 9 L 627 266 L 959 172 Z " fill="rgb(209,92,13)" vector-effect="non-scaling-stroke" stroke-width="1.51" stroke="rgb(209,92,13)" stroke-linejoin="miter" stroke-linecap="butt" stroke-miterlimit="4"/><path d=" M 1350 482 L 1188 104 L 959 172 L 1350 482 Z " fill="rgb(228,126,33)" vector-effect="non-scaling-stroke" stroke-width="1.51" stroke="rgb(228,126,33)" stroke-linejoin="miter" stroke-linecap="butt" stroke-miterlimit="4"/><path d=" M 1514 1100 L 1494 682 L 1254 868 L 1514 1100 Z " fill="rgb(255,191,82)" vector-effect="non-scaling-stroke" stroke-width="1.51" stroke="rgb(255,191,82)" stroke-linejoin="miter" stroke-linecap="butt" stroke-miterlimit="4"/><path d=" M 1350 482 L 1471 368 L 1188 104 L 1350 482 Z " fill="rgb(234,142,47)" vector-effect="non-scaling-stroke" stroke-width="1.51" stroke="rgb(234,142,47)" stroke-linejoin="miter" stroke-linecap="butt" stroke-miterlimit="4"/><path d=" M 1003 -32 L 641 9 L 959 172 L 1003 -32 Z " fill="rgb(201,95,18)" vector-effect="non-scaling-stroke" stroke-width="1.51" stroke="rgb(201,95,18)" stroke-linejoin="miter" stroke-linecap="butt" stroke-miterlimit="4"/><path d=" M 627 266 L 374 106 L 378 466 L 627 266 Z " fill="rgb(209,82,4)" vector-effect="non-scaling-stroke" stroke-width="1.51" stroke="rgb(209,82,4)" stroke-linejoin="miter" stroke-linecap="butt" stroke-miterlimit="4"/><path d=" M 1494 682 L 1471 368 L 1350 482 L 1494 682 Z " fill="rgb(247,161,65)" vector-effect="non-scaling-stroke" stroke-width="1.51" stroke="rgb(247,161,65)" stroke-linejoin="miter" stroke-linecap="butt" stroke-miterlimit="4"/><path d=" M 1188 104 L 1003 -32 L 959 172 L 1188 104 Z " fill="rgb(209,109,25)" vector-effect="non-scaling-stroke" stroke-width="1.51" stroke="rgb(209,109,25)" stroke-linejoin="miter" stroke-linecap="butt" stroke-miterlimit="4"/><path d=" M 911 1020 L 1279 1270 L 1266 974 L 911 1020 Z " fill="rgb(255,190,80)" vector-effect="non-scaling-stroke" stroke-width="1.51" stroke="rgb(255,190,80)" stroke-linejoin="miter" stroke-linecap="butt" stroke-miterlimit="4"/><path d=" M 717 1034 L 908 1291 L 911 1020 L 717 1034 Z " fill="rgb(252,172,71)" vector-effect="non-scaling-stroke" stroke-width="1.51" stroke="rgb(252,172,71)" stroke-linejoin="miter" stroke-linecap="butt" stroke-miterlimit="4"/><path d=" M 628 1434 L 908 1291 L 717 1034 L 628 1434 Z " fill="rgb(251,174,87)" vector-effect="non-scaling-stroke" stroke-width="1.51" stroke="rgb(251,174,87)" stroke-linejoin="miter" stroke-linecap="butt" stroke-miterlimit="4"/><path d=" M 1471 368 L 1508 313 L 1188 104 L 1471 368 Z " fill="rgb(230,141,52)" vector-effect="non-scaling-stroke" stroke-width="1.51" stroke="rgb(230,141,52)" stroke-linejoin="miter" stroke-linecap="butt" stroke-miterlimit="4"/><path d=" M 1188 104 L 1161 -140 L 1003 -32 L 1188 104 Z " fill="rgb(198,109,29)" vector-effect="non-scaling-stroke" stroke-width="1.51" stroke="rgb(198,109,29)" stroke-linejoin="miter" stroke-linecap="butt" stroke-miterlimit="4"/><path d=" M 1739 218 L 1508 313 L 1901 556 L 1739 218 Z " fill="rgb(240,162,86)" vector-effect="non-scaling-stroke" stroke-width="1.51" stroke="rgb(240,162,86)" stroke-linejoin="miter" stroke-linecap="butt" stroke-miterlimit="4"/><path d=" M 641 9 L 374 106 L 627 266 L 641 9 Z " fill="rgb(197,79,7)" vector-effect="non-scaling-stroke" stroke-width="1.51" stroke="rgb(197,79,7)" stroke-linejoin="miter" stroke-linecap="butt" stroke-miterlimit="4"/><path d=" M 378 466 L 159 598 L 363 691 L 378 466 Z " fill="rgb(217,97,14)" vector-effect="non-scaling-stroke" stroke-width="1.51" stroke="rgb(217,97,14)" stroke-linejoin="miter" stroke-linecap="butt" stroke-miterlimit="4"/><path d=" M 363 691 L 132 824 L 480 931 L 363 691 Z " fill="rgb(226,118,26)" vector-effect="non-scaling-stroke" stroke-width="1.51" stroke="rgb(226,118,26)" stroke-linejoin="miter" stroke-linecap="butt" stroke-miterlimit="4"/><path d=" M 50 163 L 159 598 L 378 466 L 50 163 Z " fill="rgb(198,79,7)" vector-effect="non-scaling-stroke" stroke-width="1.51" stroke="rgb(198,79,7)" stroke-linejoin="miter" stroke-linecap="butt" stroke-miterlimit="4"/><path d=" M 159 598 L 132 824 L 363 691 L 159 598 Z " fill="rgb(215,104,19)" vector-effect="non-scaling-stroke" stroke-width="1.51" stroke="rgb(215,104,19)" stroke-linejoin="miter" stroke-linecap="butt" stroke-miterlimit="4"/><path d=" M 395 1367 L 628 1434 L 717 1034 L 395 1367 Z " fill="rgb(245,166,85)" vector-effect="non-scaling-stroke" stroke-width="1.51" stroke="rgb(245,166,85)" stroke-linejoin="miter" stroke-linecap="butt" stroke-miterlimit="4"/><path d=" M 374 106 L 50 163 L 378 466 L 374 106 Z " fill="rgb(193,70,3)" vector-effect="non-scaling-stroke" stroke-width="1.51" stroke="rgb(193,70,3)" stroke-linejoin="miter" stroke-linecap="butt" stroke-miterlimit="4"/><path d=" M 641 9 L 423 -13 L 374 106 L 641 9 Z " fill="rgb(185,70,6)" vector-effect="non-scaling-stroke" stroke-width="1.51" stroke="rgb(185,70,6)" stroke-linejoin="miter" stroke-linecap="butt" stroke-miterlimit="4"/><path d=" M 447 -293 L 423 -13 L 641 9 L 447 -293 Z " fill="rgb(171,67,8)" vector-effect="non-scaling-stroke" stroke-width="1.51" stroke="rgb(171,67,8)" stroke-linejoin="miter" stroke-linecap="butt" stroke-miterlimit="4"/><path d=" M 1266 974 L 1514 1100 L 1254 868 L 1266 974 Z " fill="rgb(254,195,80)" vector-effect="non-scaling-stroke" stroke-width="1.51" stroke="rgb(254,195,80)" stroke-linejoin="miter" stroke-linecap="butt" stroke-miterlimit="4"/><path d=" M 908 1291 L 1279 1270 L 911 1020 L 908 1291 Z " fill="rgb(255,189,89)" vector-effect="non-scaling-stroke" stroke-width="1.51" stroke="rgb(255,189,89)" stroke-linejoin="miter" stroke-linecap="butt" stroke-miterlimit="4"/><path d=" M 1901 556 L 1508 313 L 1471 368 L 1901 556 Z " fill="rgb(243,163,82)" vector-effect="non-scaling-stroke" stroke-width="1.51" stroke="rgb(243,163,82)" stroke-linejoin="miter" stroke-linecap="butt" stroke-miterlimit="4"/><path d=" M 1279 1270 L 1514 1100 L 1266 974 L 1279 1270 Z " fill="rgb(255,204,98)" vector-effect="non-scaling-stroke" stroke-width="1.51" stroke="rgb(255,204,98)" stroke-linejoin="miter" stroke-linecap="butt" stroke-miterlimit="4"/><path d=" M 1003 -32 L 685 -326 L 641 9 L 1003 -32 Z " fill="rgb(180,83,16)" vector-effect="non-scaling-stroke" stroke-width="1.51" stroke="rgb(180,83,16)" stroke-linejoin="miter" stroke-linecap="butt" stroke-miterlimit="4"/><path d=" M 1676 0 L 1161 -140 L 1188 104 L 1676 0 Z " fill="rgb(200,124,44)" vector-effect="non-scaling-stroke" stroke-width="1.51" stroke="rgb(200,124,44)" stroke-linejoin="miter" stroke-linecap="butt" stroke-miterlimit="4"/><path d=" M 908 1291 L 1044 1500 L 1279 1270 L 908 1291 Z " fill="rgb(255,200,108)" vector-effect="non-scaling-stroke" stroke-width="1.51" stroke="rgb(255,200,108)" stroke-linejoin="miter" stroke-linecap="butt" stroke-miterlimit="4"/><path d=" M 395 1367 L 717 1034 L 480 931 L 395 1367 Z " fill="rgb(241,153,61)" vector-effect="non-scaling-stroke" stroke-width="1.51" stroke="rgb(241,153,61)" stroke-linejoin="miter" stroke-linecap="butt" stroke-miterlimit="4"/><path d=" M 132 824 L 87 994 L 480 931 L 132 824 Z " fill="rgb(219,124,35)" vector-effect="non-scaling-stroke" stroke-width="1.51" stroke="rgb(219,124,35)" stroke-linejoin="miter" stroke-linecap="butt" stroke-miterlimit="4"/><path d=" M -87 719 L 87 994 L 132 824 L -87 719 Z " fill="rgb(203,109,28)" vector-effect="non-scaling-stroke" stroke-width="1.51" stroke="rgb(203,109,28)" stroke-linejoin="miter" stroke-linecap="butt" stroke-miterlimit="4"/><path d=" M 87 994 L 395 1367 L 480 931 L 87 994 Z " fill="rgb(229,142,55)" vector-effect="non-scaling-stroke" stroke-width="1.51" stroke="rgb(229,142,55)" stroke-linejoin="miter" stroke-linecap="butt" stroke-miterlimit="4"/><path d=" M 1279 1270 L 1548 1295 L 1514 1100 L 1279 1270 Z " fill="rgb(255,215,122)" vector-effect="non-scaling-stroke" stroke-width="1.51" stroke="rgb(255,215,122)" stroke-linejoin="miter" stroke-linecap="butt" stroke-miterlimit="4"/><path d=" M 628 1434 L 1044 1500 L 908 1291 L 628 1434 Z " fill="rgb(255,187,104)" vector-effect="non-scaling-stroke" stroke-width="1.51" stroke="rgb(255,187,104)" stroke-linejoin="miter" stroke-linecap="butt" stroke-miterlimit="4"/><path d=" M 111 -14 L 50 163 L 374 106 L 111 -14 Z " fill="rgb(168,59,4)" vector-effect="non-scaling-stroke" stroke-width="1.51" stroke="rgb(168,59,4)" stroke-linejoin="miter" stroke-linecap="butt" stroke-miterlimit="4"/><path d=" M 159 598 L -87 719 L 132 824 L 159 598 Z " fill="rgb(202,98,19)" vector-effect="non-scaling-stroke" stroke-width="1.51" stroke="rgb(202,98,19)" stroke-linejoin="miter" stroke-linecap="butt" stroke-miterlimit="4"/><path d=" M 1508 313 L 1676 0 L 1188 104 L 1508 313 Z " fill="rgb(218,137,57)" vector-effect="non-scaling-stroke" stroke-width="1.51" stroke="rgb(218,137,57)" stroke-linejoin="miter" stroke-linecap="butt" stroke-miterlimit="4"/><path d=" M 1901 556 L 1471 368 L 1494 682 L 1901 556 Z " fill="rgb(250,172,86)" vector-effect="non-scaling-stroke" stroke-width="1.51" stroke="rgb(250,172,86)" stroke-linejoin="miter" stroke-linecap="butt" stroke-miterlimit="4"/><path d=" M 628 1434 L 614 1536 L 1044 1500 L 628 1434 Z " fill="rgb(254,185,109)" vector-effect="non-scaling-stroke" stroke-width="1.51" stroke="rgb(254,185,109)" stroke-linejoin="miter" stroke-linecap="butt" stroke-miterlimit="4"/><path d=" M 393 1537 L 614 1536 L 628 1434 L 393 1537 Z " fill="rgb(246,173,103)" vector-effect="non-scaling-stroke" stroke-width="1.51" stroke="rgb(246,173,103)" stroke-linejoin="miter" stroke-linecap="butt" stroke-miterlimit="4"/><path d=" M 952 -425 L 685 -326 L 1003 -32 L 952 -425 Z " fill="rgb(172,85,19)" vector-effect="non-scaling-stroke" stroke-width="1.51" stroke="rgb(172,85,19)" stroke-linejoin="miter" stroke-linecap="butt" stroke-miterlimit="4"/><path d=" M 423 -13 L 111 -14 L 374 106 L 423 -13 Z " fill="rgb(173,61,4)" vector-effect="non-scaling-stroke" stroke-width="1.51" stroke="rgb(173,61,4)" stroke-linejoin="miter" stroke-linecap="butt" stroke-miterlimit="4"/><path d=" M 1329 1691 L 1548 1295 L 1279 1270 L 1329 1691 Z " fill="rgb(255,221,135)" vector-effect="non-scaling-stroke" stroke-width="1.51" stroke="rgb(255,221,135)" stroke-linejoin="miter" stroke-linecap="butt" stroke-miterlimit="4"/><path d=" M 1514 1100 L 1846 817 L 1494 682 L 1514 1100 Z " fill="rgb(255,199,101)" vector-effect="non-scaling-stroke" stroke-width="1.51" stroke="rgb(255,199,101)" stroke-linejoin="miter" stroke-linecap="butt" stroke-miterlimit="4"/><path d=" M -85 452 L -87 719 L 159 598 L -85 452 Z " fill="rgb(192,86,15)" vector-effect="non-scaling-stroke" stroke-width="1.51" stroke="rgb(192,86,15)" stroke-linejoin="miter" stroke-linecap="butt" stroke-miterlimit="4"/><path d=" M -63 315 L -85 452 L 159 598 L -63 315 Z " fill="rgb(185,76,9)" vector-effect="non-scaling-stroke" stroke-width="1.51" stroke="rgb(185,76,9)" stroke-linejoin="miter" stroke-linecap="butt" stroke-miterlimit="4"/><path d=" M 50 163 L -63 315 L 159 598 L 50 163 Z " fill="rgb(184,70,5)" vector-effect="non-scaling-stroke" stroke-width="1.51" stroke="rgb(184,70,5)" stroke-linejoin="miter" stroke-linecap="butt" stroke-miterlimit="4"/><path d=" M 50 163 L -131 -97 L -63 315 L 50 163 Z " fill="rgb(155,54,5)" vector-effect="non-scaling-stroke" stroke-width="1.51" stroke="rgb(155,54,5)" stroke-linejoin="miter" stroke-linecap="butt" stroke-miterlimit="4"/><path d=" M 447 -293 L 111 -14 L 423 -13 L 447 -293 Z " fill="rgb(160,58,5)" vector-effect="non-scaling-stroke" stroke-width="1.51" stroke="rgb(160,58,5)" stroke-linejoin="miter" stroke-linecap="butt" stroke-miterlimit="4"/><path d=" M 1779 1102 L 1846 817 L 1514 1100 L 1779 1102 Z " fill="rgb(255,213,118)" vector-effect="non-scaling-stroke" stroke-width="1.51" stroke="rgb(255,213,118)" stroke-linejoin="miter" stroke-linecap="butt" stroke-miterlimit="4"/><path d=" M 685 -326 L 447 -293 L 641 9 L 685 -326 Z " fill="rgb(164,69,11)" vector-effect="non-scaling-stroke" stroke-width="1.51" stroke="rgb(164,69,11)" stroke-linejoin="miter" stroke-linecap="butt" stroke-miterlimit="4"/><path d=" M 1739 218 L 1676 0 L 1508 313 L 1739 218 Z " fill="rgb(223,148,77)" vector-effect="non-scaling-stroke" stroke-width="1.51" stroke="rgb(223,148,77)" stroke-linejoin="miter" stroke-linecap="butt" stroke-miterlimit="4"/><path d=" M 1161 -140 L 952 -425 L 1003 -32 L 1161 -140 Z " fill="rgb(177,96,25)" vector-effect="non-scaling-stroke" stroke-width="1.51" stroke="rgb(177,96,25)" stroke-linejoin="miter" stroke-linecap="butt" stroke-miterlimit="4"/><path d=" M 1548 1295 L 1779 1102 L 1514 1100 L 1548 1295 Z " fill="rgb(255,220,132)" vector-effect="non-scaling-stroke" stroke-width="1.51" stroke="rgb(255,220,132)" stroke-linejoin="miter" stroke-linecap="butt" stroke-miterlimit="4"/><path d=" M 1907 -296 L 1722 -168 L 2145 -119 L 1907 -296 Z " fill="rgb(183,138,90)" vector-effect="non-scaling-stroke" stroke-width="1.51" stroke="rgb(183,138,90)" stroke-linejoin="miter" stroke-linecap="butt" stroke-miterlimit="4"/><path d=" M 1846 817 L 1901 556 L 1494 682 L 1846 817 Z " fill="rgb(255,187,100)" vector-effect="non-scaling-stroke" stroke-width="1.51" stroke="rgb(255,187,100)" stroke-linejoin="miter" stroke-linecap="butt" stroke-miterlimit="4"/><path d=" M 395 1367 L 393 1537 L 628 1434 L 395 1367 Z " fill="rgb(242,166,96)" vector-effect="non-scaling-stroke" stroke-width="1.51" stroke="rgb(242,166,96)" stroke-linejoin="miter" stroke-linecap="butt" stroke-miterlimit="4"/><path d=" M 98 1403 L 393 1537 L 395 1367 L 98 1403 Z " fill="rgb(230,157,92)" vector-effect="non-scaling-stroke" stroke-width="1.51" stroke="rgb(230,157,92)" stroke-linejoin="miter" stroke-linecap="butt" stroke-miterlimit="4"/><path d=" M 98 1403 L 395 1367 L 87 994 L 98 1403 Z " fill="rgb(219,146,74)" vector-effect="non-scaling-stroke" stroke-width="1.51" stroke="rgb(219,146,74)" stroke-linejoin="miter" stroke-linecap="butt" stroke-miterlimit="4"/><path d=" M 685 -326 L 265 -475 L 447 -293 L 685 -326 Z " fill="rgb(156,62,9)" vector-effect="non-scaling-stroke" stroke-width="1.51" stroke="rgb(156,62,9)" stroke-linejoin="miter" stroke-linecap="butt" stroke-miterlimit="4"/><path d=" M 1211 -432 L 952 -425 L 1161 -140 L 1211 -432 Z " fill="rgb(176,100,29)" vector-effect="non-scaling-stroke" stroke-width="1.51" stroke="rgb(176,100,29)" stroke-linejoin="miter" stroke-linecap="butt" stroke-miterlimit="4"/><path d=" M 1645 -310 L 1211 -432 L 1161 -140 L 1645 -310 Z " fill="rgb(176,115,43)" vector-effect="non-scaling-stroke" stroke-width="1.51" stroke="rgb(176,115,43)" stroke-linejoin="miter" stroke-linecap="butt" stroke-miterlimit="4"/><path d=" M -41 1434 L 98 1403 L 87 994 L -41 1434 Z " fill="rgb(207,140,75)" vector-effect="non-scaling-stroke" stroke-width="1.51" stroke="rgb(207,140,75)" stroke-linejoin="miter" stroke-linecap="butt" stroke-miterlimit="4"/><path d=" M 1722 -168 L 1676 0 L 2145 -119 L 1722 -168 Z " fill="rgb(195,140,87)" vector-effect="non-scaling-stroke" stroke-width="1.51" stroke="rgb(195,140,87)" stroke-linejoin="miter" stroke-linecap="butt" stroke-miterlimit="4"/><path d=" M 1676 0 L 1645 -310 L 1161 -140 L 1676 0 Z " fill="rgb(185,125,59)" vector-effect="non-scaling-stroke" stroke-width="1.51" stroke="rgb(185,125,59)" stroke-linejoin="miter" stroke-linecap="butt" stroke-miterlimit="4"/><path d=" M 1548 1295 L 1877 1333 L 1779 1102 L 1548 1295 Z " fill="rgb(255,229,150)" vector-effect="non-scaling-stroke" stroke-width="1.51" stroke="rgb(255,229,150)" stroke-linejoin="miter" stroke-linecap="butt" stroke-miterlimit="4"/><path d=" M 1044 1500 L 1329 1691 L 1279 1270 L 1044 1500 Z " fill="rgb(255,214,128)" vector-effect="non-scaling-stroke" stroke-width="1.51" stroke="rgb(255,214,128)" stroke-linejoin="miter" stroke-linecap="butt" stroke-miterlimit="4"/><path d=" M 614 1536 L 1329 1691 L 1044 1500 L 614 1536 Z " fill="rgb(255,201,123)" vector-effect="non-scaling-stroke" stroke-width="1.51" stroke="rgb(255,201,123)" stroke-linejoin="miter" stroke-linecap="butt" stroke-miterlimit="4"/><path d=" M 149 1686 L 1329 1691 L 614 1536 L 149 1686 Z " fill="rgb(255,183,118)" vector-effect="non-scaling-stroke" stroke-width="1.51" stroke="rgb(255,183,118)" stroke-linejoin="miter" stroke-linecap="butt" stroke-miterlimit="4"/><path d=" M -87 719 L -240 1110 L 87 994 L -87 719 Z " fill="rgb(193,114,35)" vector-effect="non-scaling-stroke" stroke-width="1.51" stroke="rgb(193,114,35)" stroke-linejoin="miter" stroke-linecap="butt" stroke-miterlimit="4"/><path d=" M -85 452 L -306 572 L -87 719 L -85 452 Z " fill="rgb(178,81,15)" vector-effect="non-scaling-stroke" stroke-width="1.51" stroke="rgb(178,81,15)" stroke-linejoin="miter" stroke-linecap="butt" stroke-miterlimit="4"/><path d=" M -63 315 L -306 572 L -85 452 L -63 315 Z " fill="rgb(171,71,10)" vector-effect="non-scaling-stroke" stroke-width="1.51" stroke="rgb(171,71,10)" stroke-linejoin="miter" stroke-linecap="butt" stroke-miterlimit="4"/><path d=" M -485 103 L -306 572 L -63 315 L -485 103 Z " fill="rgb(155,60,8)" vector-effect="non-scaling-stroke" stroke-width="1.51" stroke="rgb(155,60,8)" stroke-linejoin="miter" stroke-linecap="butt" stroke-miterlimit="4"/><path d=" M 1722 -168 L 1645 -310 L 1676 0 L 1722 -168 Z " fill="rgb(186,132,75)" vector-effect="non-scaling-stroke" stroke-width="1.51" stroke="rgb(186,132,75)" stroke-linejoin="miter" stroke-linecap="butt" stroke-miterlimit="4"/><path d=" M -332 866 L -240 1110 L -87 719 L -332 866 Z " fill="rgb(180,105,33)" vector-effect="non-scaling-stroke" stroke-width="1.51" stroke="rgb(180,105,33)" stroke-linejoin="miter" stroke-linecap="butt" stroke-miterlimit="4"/><path d=" M 1846 817 L 2077 813 L 1901 556 L 1846 817 Z " fill="rgb(255,197,116)" vector-effect="non-scaling-stroke" stroke-width="1.51" stroke="rgb(255,197,116)" stroke-linejoin="miter" stroke-linecap="butt" stroke-miterlimit="4"/><path d=" M 1901 556 L 2206 246 L 1739 218 L 1901 556 Z " fill="rgb(241,168,101)" vector-effect="non-scaling-stroke" stroke-width="1.51" stroke="rgb(241,168,101)" stroke-linejoin="miter" stroke-linecap="butt" stroke-miterlimit="4"/><path d=" M 2034 1096 L 2077 813 L 1846 817 L 2034 1096 Z " fill="rgb(255,213,130)" vector-effect="non-scaling-stroke" stroke-width="1.51" stroke="rgb(255,213,130)" stroke-linejoin="miter" stroke-linecap="butt" stroke-miterlimit="4"/><path d=" M 2034 1096 L 1846 817 L 1779 1102 L 2034 1096 Z " fill="rgb(255,219,130)" vector-effect="non-scaling-stroke" stroke-width="1.51" stroke="rgb(255,219,130)" stroke-linejoin="miter" stroke-linecap="butt" stroke-miterlimit="4"/><path d=" M -240 1110 L -41 1434 L 87 994 L -240 1110 Z " fill="rgb(196,131,63)" vector-effect="non-scaling-stroke" stroke-width="1.51" stroke="rgb(196,131,63)" stroke-linejoin="miter" stroke-linecap="butt" stroke-miterlimit="4"/><path d=" M 98 1403 L 149 1686 L 393 1537 L 98 1403 Z " fill="rgb(225,157,99)" vector-effect="non-scaling-stroke" stroke-width="1.51" stroke="rgb(225,157,99)" stroke-linejoin="miter" stroke-linecap="butt" stroke-miterlimit="4"/><path d=" M 111 -14 L -131 -97 L 50 163 L 111 -14 Z " fill="rgb(148,51,5)" vector-effect="non-scaling-stroke" stroke-width="1.51" stroke="rgb(148,51,5)" stroke-linejoin="miter" stroke-linecap="butt" stroke-miterlimit="4"/><path d=" M -76 -413 L -131 -97 L 111 -14 L -76 -413 Z " fill="rgb(124,44,6)" vector-effect="non-scaling-stroke" stroke-width="1.51" stroke="rgb(124,44,6)" stroke-linejoin="miter" stroke-linecap="butt" stroke-miterlimit="4"/><path d=" M -306 572 L -332 866 L -87 719 L -306 572 Z " fill="rgb(176,90,21)" vector-effect="non-scaling-stroke" stroke-width="1.51" stroke="rgb(176,90,21)" stroke-linejoin="miter" stroke-linecap="butt" stroke-miterlimit="4"/><path d=" M 1596 1638 L 1731 1490 L 1548 1295 L 1596 1638 Z " fill="rgb(255,236,164)" vector-effect="non-scaling-stroke" stroke-width="1.51" stroke="rgb(255,236,164)" stroke-linejoin="miter" stroke-linecap="butt" stroke-miterlimit="4"/><path d=" M 1731 1490 L 1877 1333 L 1548 1295 L 1731 1490 Z " fill="rgb(255,234,161)" vector-effect="non-scaling-stroke" stroke-width="1.51" stroke="rgb(255,234,161)" stroke-linejoin="miter" stroke-linecap="butt" stroke-miterlimit="4"/><path d=" M 1211 -432 L 265 -475 L 952 -425 L 1211 -432 Z " fill="rgb(170,81,18)" vector-effect="non-scaling-stroke" stroke-width="1.51" stroke="rgb(170,81,18)" stroke-linejoin="miter" stroke-linecap="butt" stroke-miterlimit="4"/><path d=" M 952 -425 L 265 -475 L 685 -326 L 952 -425 Z " fill="rgb(164,71,12)" vector-effect="non-scaling-stroke" stroke-width="1.51" stroke="rgb(164,71,12)" stroke-linejoin="miter" stroke-linecap="butt" stroke-miterlimit="4"/><path d=" M 447 -293 L 265 -475 L 111 -14 L 447 -293 Z " fill="rgb(144,53,6)" vector-effect="non-scaling-stroke" stroke-width="1.51" stroke="rgb(144,53,6)" stroke-linejoin="miter" stroke-linecap="butt" stroke-miterlimit="4"/><path d=" M 2077 813 L 2119 523 L 1901 556 L 2077 813 Z " fill="rgb(255,190,117)" vector-effect="non-scaling-stroke" stroke-width="1.51" stroke="rgb(255,190,117)" stroke-linejoin="miter" stroke-linecap="butt" stroke-miterlimit="4"/><path d=" M 1722 -168 L 1907 -296 L 1645 -310 L 1722 -168 Z " fill="rgb(179,132,80)" vector-effect="non-scaling-stroke" stroke-width="1.51" stroke="rgb(179,132,80)" stroke-linejoin="miter" stroke-linecap="butt" stroke-miterlimit="4"/><path d=" M 2059 1553 L 2095 1308 L 1877 1333 L 2059 1553 Z " fill="rgb(255,243,183)" vector-effect="non-scaling-stroke" stroke-width="1.51" stroke="rgb(255,243,183)" stroke-linejoin="miter" stroke-linecap="butt" stroke-miterlimit="4"/><path d=" M 1329 1691 L 1596 1638 L 1548 1295 L 1329 1691 Z " fill="rgb(255,230,156)" vector-effect="non-scaling-stroke" stroke-width="1.51" stroke="rgb(255,230,156)" stroke-linejoin="miter" stroke-linecap="butt" stroke-miterlimit="4"/><path d=" M 1877 1333 L 2034 1096 L 1779 1102 L 1877 1333 Z " fill="rgb(255,230,153)" vector-effect="non-scaling-stroke" stroke-width="1.51" stroke="rgb(255,230,153)" stroke-linejoin="miter" stroke-linecap="butt" stroke-miterlimit="4"/><path d=" M -41 1434 L 149 1686 L 98 1403 L -41 1434 Z " fill="rgb(212,150,95)" vector-effect="non-scaling-stroke" stroke-width="1.51" stroke="rgb(212,150,95)" stroke-linejoin="miter" stroke-linecap="butt" stroke-miterlimit="4"/><path d=" M 393 1537 L 149 1686 L 614 1536 L 393 1537 Z " fill="rgb(239,165,106)" vector-effect="non-scaling-stroke" stroke-width="1.51" stroke="rgb(239,165,106)" stroke-linejoin="miter" stroke-linecap="butt" stroke-miterlimit="4"/><path d=" M -306 572 L -437 944 L -332 866 L -306 572 Z " fill="rgb(175,95,25)" vector-effect="non-scaling-stroke" stroke-width="1.51" stroke="rgb(175,95,25)" stroke-linejoin="miter" stroke-linecap="butt" stroke-miterlimit="4"/><path d=" M -332 866 L -437 944 L -240 1110 L -332 866 Z " fill="rgb(176,110,38)" vector-effect="non-scaling-stroke" stroke-width="1.51" stroke="rgb(176,110,38)" stroke-linejoin="miter" stroke-linecap="butt" stroke-miterlimit="4"/><path d=" M -404 1657 L -65 1676 L -41 1434 L -404 1657 Z " fill="rgb(190,142,99)" vector-effect="non-scaling-stroke" stroke-width="1.51" stroke="rgb(190,142,99)" stroke-linejoin="miter" stroke-linecap="butt" stroke-miterlimit="4"/><path d=" M -41 1434 L -65 1676 L 149 1686 L -41 1434 Z " fill="rgb(208,149,101)" vector-effect="non-scaling-stroke" stroke-width="1.51" stroke="rgb(208,149,101)" stroke-linejoin="miter" stroke-linecap="butt" stroke-miterlimit="4"/><path d=" M -485 103 L -437 944 L -306 572 L -485 103 Z " fill="rgb(167,74,15)" vector-effect="non-scaling-stroke" stroke-width="1.51" stroke="rgb(167,74,15)" stroke-linejoin="miter" stroke-linecap="butt" stroke-miterlimit="4"/><path d=" M 2145 -119 L 1676 0 L 1739 218 L 2145 -119 Z " fill="rgb(210,146,88)" vector-effect="non-scaling-stroke" stroke-width="1.51" stroke="rgb(210,146,88)" stroke-linejoin="miter" stroke-linecap="butt" stroke-miterlimit="4"/><path d=" M 1645 -310 L 2201 -387 L 1211 -432 L 1645 -310 Z " fill="rgb(179,130,75)" vector-effect="non-scaling-stroke" stroke-width="1.51" stroke="rgb(179,130,75)" stroke-linejoin="miter" stroke-linecap="butt" stroke-miterlimit="4"/><path d=" M 2119 523 L 2206 246 L 1901 556 L 2119 523 Z " fill="rgb(249,176,113)" vector-effect="non-scaling-stroke" stroke-width="1.51" stroke="rgb(249,176,113)" stroke-linejoin="miter" stroke-linecap="butt" stroke-miterlimit="4"/><path d=" M 2077 813 L 2206 246 L 2119 523 L 2077 813 Z " fill="rgb(255,183,120)" vector-effect="non-scaling-stroke" stroke-width="1.51" stroke="rgb(255,183,120)" stroke-linejoin="miter" stroke-linecap="butt" stroke-miterlimit="4"/><path d=" M 2095 1308 L 2206 246 L 2077 813 L 2095 1308 Z " fill="rgb(255,204,131)" vector-effect="non-scaling-stroke" stroke-width="1.51" stroke="rgb(255,204,131)" stroke-linejoin="miter" stroke-linecap="butt" stroke-miterlimit="4"/><path d=" M -131 -97 L -485 103 L -63 315 L -131 -97 Z " fill="rgb(138,49,6)" vector-effect="non-scaling-stroke" stroke-width="1.51" stroke="rgb(138,49,6)" stroke-linejoin="miter" stroke-linecap="butt" stroke-miterlimit="4"/><path d=" M 265 -475 L -76 -413 L 111 -14 L 265 -475 Z " fill="rgb(131,46,6)" vector-effect="non-scaling-stroke" stroke-width="1.51" stroke="rgb(131,46,6)" stroke-linejoin="miter" stroke-linecap="butt" stroke-miterlimit="4"/><path d=" M 2034 1096 L 2095 1308 L 2077 813 L 2034 1096 Z " fill="rgb(255,227,151)" vector-effect="non-scaling-stroke" stroke-width="1.51" stroke="rgb(255,227,151)" stroke-linejoin="miter" stroke-linecap="butt" stroke-miterlimit="4"/><path d=" M 1877 1333 L 2095 1308 L 2034 1096 L 1877 1333 Z " fill="rgb(255,237,169)" vector-effect="non-scaling-stroke" stroke-width="1.51" stroke="rgb(255,237,169)" stroke-linejoin="miter" stroke-linecap="butt" stroke-miterlimit="4"/><path d=" M 2059 1553 L 1877 1333 L 1731 1490 L 2059 1553 Z " fill="rgb(255,243,180)" vector-effect="non-scaling-stroke" stroke-width="1.51" stroke="rgb(255,243,180)" stroke-linejoin="miter" stroke-linecap="butt" stroke-miterlimit="4"/><path d=" M -489 1321 L -41 1434 L -240 1110 L -489 1321 Z " fill="rgb(180,130,74)" vector-effect="non-scaling-stroke" stroke-width="1.51" stroke="rgb(180,130,74)" stroke-linejoin="miter" stroke-linecap="butt" stroke-miterlimit="4"/><path d=" M -76 -413 L -344 -130 L -131 -97 L -76 -413 Z " fill="rgb(109,39,6)" vector-effect="non-scaling-stroke" stroke-width="1.51" stroke="rgb(109,39,6)" stroke-linejoin="miter" stroke-linecap="butt" stroke-miterlimit="4"/><path d=" M -344 -130 L -485 103 L -131 -97 L -344 -130 Z " fill="rgb(120,42,6)" vector-effect="non-scaling-stroke" stroke-width="1.51" stroke="rgb(120,42,6)" stroke-linejoin="miter" stroke-linecap="butt" stroke-miterlimit="4"/><path d=" M 2206 246 L 2145 -119 L 1739 218 L 2206 246 Z " fill="rgb(221,155,101)" vector-effect="non-scaling-stroke" stroke-width="1.51" stroke="rgb(221,155,101)" stroke-linejoin="miter" stroke-linecap="butt" stroke-miterlimit="4"/><path d=" M 1329 1691 L 2059 1553 L 1596 1638 L 1329 1691 Z " fill="rgb(255,240,179)" vector-effect="non-scaling-stroke" stroke-width="1.51" stroke="rgb(255,240,179)" stroke-linejoin="miter" stroke-linecap="butt" stroke-miterlimit="4"/><path d=" M 1596 1638 L 2059 1553 L 1731 1490 L 1596 1638 Z " fill="rgb(255,243,183)" vector-effect="non-scaling-stroke" stroke-width="1.51" stroke="rgb(255,243,183)" stroke-linejoin="miter" stroke-linecap="butt" stroke-miterlimit="4"/><path d=" M -485 103 L -489 1321 L -437 944 L -485 103 Z " fill="rgb(175,95,25)" vector-effect="non-scaling-stroke" stroke-width="1.51" stroke="rgb(175,95,25)" stroke-linejoin="miter" stroke-linecap="butt" stroke-miterlimit="4"/><path d=" M -437 944 L -489 1321 L -240 1110 L -437 944 Z " fill="rgb(177,120,55)" vector-effect="non-scaling-stroke" stroke-width="1.51" stroke="rgb(177,120,55)" stroke-linejoin="miter" stroke-linecap="butt" stroke-miterlimit="4"/><path d=" M -489 1321 L -404 1657 L -41 1434 L -489 1321 Z " fill="rgb(180,136,89)" vector-effect="non-scaling-stroke" stroke-width="1.51" stroke="rgb(180,136,89)" stroke-linejoin="miter" stroke-linecap="butt" stroke-miterlimit="4"/><path d=" M 2206 246 L 2201 -387 L 2145 -119 L 2206 246 Z " fill="rgb(198,146,107)" vector-effect="non-scaling-stroke" stroke-width="1.51" stroke="rgb(198,146,107)" stroke-linejoin="miter" stroke-linecap="butt" stroke-miterlimit="4"/><path d=" M 2145 -119 L 2201 -387 L 1907 -296 L 2145 -119 Z " fill="rgb(181,139,100)" vector-effect="non-scaling-stroke" stroke-width="1.51" stroke="rgb(181,139,100)" stroke-linejoin="miter" stroke-linecap="butt" stroke-miterlimit="4"/><path d=" M 1907 -296 L 2201 -387 L 1645 -310 L 1907 -296 Z " fill="rgb(180,137,90)" vector-effect="non-scaling-stroke" stroke-width="1.51" stroke="rgb(180,137,90)" stroke-linejoin="miter" stroke-linecap="butt" stroke-miterlimit="4"/><path d=" M 265 -475 L -474 -458 L -76 -413 L 265 -475 Z " fill="rgb(115,41,6)" vector-effect="non-scaling-stroke" stroke-width="1.51" stroke="rgb(115,41,6)" stroke-linejoin="miter" stroke-linecap="butt" stroke-miterlimit="4"/><path d=" M -76 -413 L -474 -458 L -344 -130 L -76 -413 Z " fill="rgb(102,37,6)" vector-effect="non-scaling-stroke" stroke-width="1.51" stroke="rgb(102,37,6)" stroke-linejoin="miter" stroke-linecap="butt" stroke-miterlimit="4"/><path d=" M -344 -130 L -474 -458 L -485 103 L -344 -130 Z " fill="rgb(107,39,6)" vector-effect="non-scaling-stroke" stroke-width="1.51" stroke="rgb(107,39,6)" stroke-linejoin="miter" stroke-linecap="butt" stroke-miterlimit="4"/></g></svg>