<?xml version="1.0" standalone="no"?><!-- Generator: Gravit.io --><svg xmlns="http://www.w3.org/2000/svg" xmlns:xlink="http://www.w3.org/1999/xlink" style="isolation:isolate" viewBox="0 0 1440 1798" width="1440" height="1798"><defs><clipPath id="_clipPath_wsz1a58EPHBpTNz5oyklPYTP3BuK8dhJ"><rect width="1440" height="1798"/></clipPath></defs><g clip-path="url(#_clipPath_wsz1a58EPHBpTNz5oyklPYTP3BuK8dhJ)"><g id="Group"><rect x="0" y="0" width="1440" height="900" transform="matrix(1,0,0,1,0,0)" fill="rgb(235,235,235)"/><clipPath id="_clipPath_Dn7jkdjvoRVv2a1MWuogShCOlqMSbjC1"><rect x="0" y="0" width="1440" height="900" transform="matrix(1,0,0,1,0,0)" fill="rgb(235,235,235)"/></clipPath><g clip-path="url(#_clipPath_Dn7jkdjvoRVv2a1MWuogShCOlqMSbjC1)"><path d=" M 984 742 L 1026 523 L 652 612 L 984 742 Z " fill="rgb(243,128,28)" vector-effect="non-scaling-stroke" stroke-width="1.51" stroke="rgb(243,128,28)" stroke-linejoin="miter" stroke-linecap="butt" stroke-miterlimit="4"/><path d=" M 1026 523 L 724 406 L 652 612 L 1026 523 Z " fill="rgb(249,143,36)" vector-effect="non-scaling-stroke" stroke-width="1.51" stroke="rgb(249,143,36)" stroke-linejoin="miter" stroke-linecap="butt" stroke-miterlimit="4"/><path d=" M 1000 182 L 806 196 L 724 406 L 1000 182 Z " fill="rgb(251,162,53)" vector-effect="non-scaling-stroke" stroke-width="1.51" stroke="rgb(251,162,53)" stroke-linejoin="miter" stroke-linecap="butt" stroke-miterlimit="4"/><path d=" M 1339 750 L 1354 525 L 1026 523 L 1339 750 Z " fill="rgb(229,109,18)" vector-effect="non-scaling-stroke" stroke-width="1.51" stroke="rgb(229,109,18)" stroke-linejoin="miter" stroke-linecap="butt" stroke-miterlimit="4"/><path d=" M 758 1044 L 1090 950 L 984 742 L 758 1044 Z " fill="rgb(225,102,15)" vector-effect="non-scaling-stroke" stroke-width="1.51" stroke="rgb(225,102,15)" stroke-linejoin="miter" stroke-linecap="butt" stroke-miterlimit="4"/><path d=" M 1237 285 L 1000 182 L 1026 523 L 1237 285 Z " fill="rgb(244,141,39)" vector-effect="non-scaling-stroke" stroke-width="1.51" stroke="rgb(244,141,39)" stroke-linejoin="miter" stroke-linecap="butt" stroke-miterlimit="4"/><path d=" M 1026 523 L 1000 182 L 724 406 L 1026 523 Z " fill="rgb(249,148,41)" vector-effect="non-scaling-stroke" stroke-width="1.51" stroke="rgb(249,148,41)" stroke-linejoin="miter" stroke-linecap="butt" stroke-miterlimit="4"/><path d=" M 652 612 L 758 1044 L 984 742 L 652 612 Z " fill="rgb(236,120,24)" vector-effect="non-scaling-stroke" stroke-width="1.51" stroke="rgb(236,120,24)" stroke-linejoin="miter" stroke-linecap="butt" stroke-miterlimit="4"/><path d=" M 724 406 L 463 348 L 652 612 L 724 406 Z " fill="rgb(255,160,48)" vector-effect="non-scaling-stroke" stroke-width="1.51" stroke="rgb(255,160,48)" stroke-linejoin="miter" stroke-linecap="butt" stroke-miterlimit="4"/><path d=" M 652 612 L 367 734 L 758 1044 L 652 612 Z " fill="rgb(240,135,36)" vector-effect="non-scaling-stroke" stroke-width="1.51" stroke="rgb(240,135,36)" stroke-linejoin="miter" stroke-linecap="butt" stroke-miterlimit="4"/><path d=" M 451 242 L 463 348 L 724 406 L 451 242 Z " fill="rgb(255,176,61)" vector-effect="non-scaling-stroke" stroke-width="1.51" stroke="rgb(255,176,61)" stroke-linejoin="miter" stroke-linecap="butt" stroke-miterlimit="4"/><path d=" M 463 348 L 367 734 L 652 612 L 463 348 Z " fill="rgb(251,159,51)" vector-effect="non-scaling-stroke" stroke-width="1.51" stroke="rgb(251,159,51)" stroke-linejoin="miter" stroke-linecap="butt" stroke-miterlimit="4"/><path d=" M 1354 525 L 1237 285 L 1026 523 L 1354 525 Z " fill="rgb(237,124,27)" vector-effect="non-scaling-stroke" stroke-width="1.51" stroke="rgb(237,124,27)" stroke-linejoin="miter" stroke-linecap="butt" stroke-miterlimit="4"/><path d=" M 1339 750 L 1026 523 L 984 742 L 1339 750 Z " fill="rgb(233,110,19)" vector-effect="non-scaling-stroke" stroke-width="1.51" stroke="rgb(233,110,19)" stroke-linejoin="miter" stroke-linecap="butt" stroke-miterlimit="4"/><path d=" M 1090 950 L 1339 750 L 984 742 L 1090 950 Z " fill="rgb(223,98,13)" vector-effect="non-scaling-stroke" stroke-width="1.51" stroke="rgb(223,98,13)" stroke-linejoin="miter" stroke-linecap="butt" stroke-miterlimit="4"/><path d=" M 806 196 L 451 242 L 724 406 L 806 196 Z " fill="rgb(255,172,59)" vector-effect="non-scaling-stroke" stroke-width="1.51" stroke="rgb(255,172,59)" stroke-linejoin="miter" stroke-linecap="butt" stroke-miterlimit="4"/><path d=" M 463 348 L 223 534 L 367 734 L 463 348 Z " fill="rgb(252,170,64)" vector-effect="non-scaling-stroke" stroke-width="1.51" stroke="rgb(252,170,64)" stroke-linejoin="miter" stroke-linecap="butt" stroke-miterlimit="4"/><path d=" M 367 734 L 529 1112 L 758 1044 L 367 734 Z " fill="rgb(228,126,33)" vector-effect="non-scaling-stroke" stroke-width="1.51" stroke="rgb(228,126,33)" stroke-linejoin="miter" stroke-linecap="butt" stroke-miterlimit="4"/><path d=" M 203 116 L 223 534 L 463 348 L 203 116 Z " fill="rgb(255,191,82)" vector-effect="non-scaling-stroke" stroke-width="1.51" stroke="rgb(255,191,82)" stroke-linejoin="miter" stroke-linecap="butt" stroke-miterlimit="4"/><path d=" M 367 734 L 246 848 L 529 1112 L 367 734 Z " fill="rgb(234,142,47)" vector-effect="non-scaling-stroke" stroke-width="1.51" stroke="rgb(234,142,47)" stroke-linejoin="miter" stroke-linecap="butt" stroke-miterlimit="4"/><path d=" M 1090 950 L 1343 1110 L 1339 750 L 1090 950 Z " fill="rgb(209,82,4)" vector-effect="non-scaling-stroke" stroke-width="1.51" stroke="rgb(209,82,4)" stroke-linejoin="miter" stroke-linecap="butt" stroke-miterlimit="4"/><path d=" M 223 534 L 246 848 L 367 734 L 223 534 Z " fill="rgb(247,161,65)" vector-effect="non-scaling-stroke" stroke-width="1.51" stroke="rgb(247,161,65)" stroke-linejoin="miter" stroke-linecap="butt" stroke-miterlimit="4"/><path d=" M 806 196 L 438 -54 L 451 242 L 806 196 Z " fill="rgb(255,190,80)" vector-effect="non-scaling-stroke" stroke-width="1.51" stroke="rgb(255,190,80)" stroke-linejoin="miter" stroke-linecap="butt" stroke-miterlimit="4"/><path d=" M 1000 182 L 809 -75 L 806 196 L 1000 182 Z " fill="rgb(252,172,71)" vector-effect="non-scaling-stroke" stroke-width="1.51" stroke="rgb(252,172,71)" stroke-linejoin="miter" stroke-linecap="butt" stroke-miterlimit="4"/><path d=" M 1089 -218 L 809 -75 L 1000 182 L 1089 -218 Z " fill="rgb(251,174,87)" vector-effect="non-scaling-stroke" stroke-width="1.51" stroke="rgb(251,174,87)" stroke-linejoin="miter" stroke-linecap="butt" stroke-miterlimit="4"/><path d=" M 246 848 L 209 903 L 529 1112 L 246 848 Z " fill="rgb(230,141,52)" vector-effect="non-scaling-stroke" stroke-width="1.51" stroke="rgb(230,141,52)" stroke-linejoin="miter" stroke-linecap="butt" stroke-miterlimit="4"/><path d=" M -22 998 L 209 903 L -184 660 L -22 998 Z " fill="rgb(240,162,86)" vector-effect="non-scaling-stroke" stroke-width="1.51" stroke="rgb(240,162,86)" stroke-linejoin="miter" stroke-linecap="butt" stroke-miterlimit="4"/><path d=" M 1339 750 L 1558 618 L 1354 525 L 1339 750 Z " fill="rgb(217,97,14)" vector-effect="non-scaling-stroke" stroke-width="1.51" stroke="rgb(217,97,14)" stroke-linejoin="miter" stroke-linecap="butt" stroke-miterlimit="4"/><path d=" M 1354 525 L 1585 392 L 1237 285 L 1354 525 Z " fill="rgb(226,118,26)" vector-effect="non-scaling-stroke" stroke-width="1.51" stroke="rgb(226,118,26)" stroke-linejoin="miter" stroke-linecap="butt" stroke-miterlimit="4"/><path d=" M 1667 1053 L 1558 618 L 1339 750 L 1667 1053 Z " fill="rgb(198,79,7)" vector-effect="non-scaling-stroke" stroke-width="1.51" stroke="rgb(198,79,7)" stroke-linejoin="miter" stroke-linecap="butt" stroke-miterlimit="4"/><path d=" M 1558 618 L 1585 392 L 1354 525 L 1558 618 Z " fill="rgb(215,104,19)" vector-effect="non-scaling-stroke" stroke-width="1.51" stroke="rgb(215,104,19)" stroke-linejoin="miter" stroke-linecap="butt" stroke-miterlimit="4"/><path d=" M 1322 -151 L 1089 -218 L 1000 182 L 1322 -151 Z " fill="rgb(245,166,85)" vector-effect="non-scaling-stroke" stroke-width="1.51" stroke="rgb(245,166,85)" stroke-linejoin="miter" stroke-linecap="butt" stroke-miterlimit="4"/><path d=" M 1343 1110 L 1667 1053 L 1339 750 L 1343 1110 Z " fill="rgb(193,70,3)" vector-effect="non-scaling-stroke" stroke-width="1.51" stroke="rgb(193,70,3)" stroke-linejoin="miter" stroke-linecap="butt" stroke-miterlimit="4"/><path d=" M 451 242 L 203 116 L 463 348 L 451 242 Z " fill="rgb(254,195,80)" vector-effect="non-scaling-stroke" stroke-width="1.51" stroke="rgb(254,195,80)" stroke-linejoin="miter" stroke-linecap="butt" stroke-miterlimit="4"/><path d=" M 809 -75 L 438 -54 L 806 196 L 809 -75 Z " fill="rgb(255,189,89)" vector-effect="non-scaling-stroke" stroke-width="1.51" stroke="rgb(255,189,89)" stroke-linejoin="miter" stroke-linecap="butt" stroke-miterlimit="4"/><path d=" M -184 660 L 209 903 L 246 848 L -184 660 Z " fill="rgb(243,163,82)" vector-effect="non-scaling-stroke" stroke-width="1.51" stroke="rgb(243,163,82)" stroke-linejoin="miter" stroke-linecap="butt" stroke-miterlimit="4"/><path d=" M 438 -54 L 203 116 L 451 242 L 438 -54 Z " fill="rgb(255,204,98)" vector-effect="non-scaling-stroke" stroke-width="1.51" stroke="rgb(255,204,98)" stroke-linejoin="miter" stroke-linecap="butt" stroke-miterlimit="4"/><path d=" M 1322 -151 L 1000 182 L 1237 285 L 1322 -151 Z " fill="rgb(241,153,61)" vector-effect="non-scaling-stroke" stroke-width="1.51" stroke="rgb(241,153,61)" stroke-linejoin="miter" stroke-linecap="butt" stroke-miterlimit="4"/><path d=" M 1585 392 L 1630 222 L 1237 285 L 1585 392 Z " fill="rgb(219,124,35)" vector-effect="non-scaling-stroke" stroke-width="1.51" stroke="rgb(219,124,35)" stroke-linejoin="miter" stroke-linecap="butt" stroke-miterlimit="4"/><path d=" M 1630 222 L 1322 -151 L 1237 285 L 1630 222 Z " fill="rgb(229,142,55)" vector-effect="non-scaling-stroke" stroke-width="1.51" stroke="rgb(229,142,55)" stroke-linejoin="miter" stroke-linecap="butt" stroke-miterlimit="4"/><path d=" M 438 -54 L 169 -79 L 203 116 L 438 -54 Z " fill="rgb(255,215,122)" vector-effect="non-scaling-stroke" stroke-width="1.51" stroke="rgb(255,215,122)" stroke-linejoin="miter" stroke-linecap="butt" stroke-miterlimit="4"/><path d=" M 209 903 L 41 1216 L 529 1112 L 209 903 Z " fill="rgb(218,137,57)" vector-effect="non-scaling-stroke" stroke-width="1.51" stroke="rgb(218,137,57)" stroke-linejoin="miter" stroke-linecap="butt" stroke-miterlimit="4"/><path d=" M -184 660 L 246 848 L 223 534 L -184 660 Z " fill="rgb(250,172,86)" vector-effect="non-scaling-stroke" stroke-width="1.51" stroke="rgb(250,172,86)" stroke-linejoin="miter" stroke-linecap="butt" stroke-miterlimit="4"/><path d=" M 203 116 L -129 399 L 223 534 L 203 116 Z " fill="rgb(255,199,101)" vector-effect="non-scaling-stroke" stroke-width="1.51" stroke="rgb(255,199,101)" stroke-linejoin="miter" stroke-linecap="butt" stroke-miterlimit="4"/><path d=" M -62 114 L -129 399 L 203 116 L -62 114 Z " fill="rgb(255,213,118)" vector-effect="non-scaling-stroke" stroke-width="1.51" stroke="rgb(255,213,118)" stroke-linejoin="miter" stroke-linecap="butt" stroke-miterlimit="4"/><path d=" M -22 998 L 41 1216 L 209 903 L -22 998 Z " fill="rgb(223,148,77)" vector-effect="non-scaling-stroke" stroke-width="1.51" stroke="rgb(223,148,77)" stroke-linejoin="miter" stroke-linecap="butt" stroke-miterlimit="4"/><path d=" M 169 -79 L -62 114 L 203 116 L 169 -79 Z " fill="rgb(255,220,132)" vector-effect="non-scaling-stroke" stroke-width="1.51" stroke="rgb(255,220,132)" stroke-linejoin="miter" stroke-linecap="butt" stroke-miterlimit="4"/><path d=" M -129 399 L -184 660 L 223 534 L -129 399 Z " fill="rgb(255,187,100)" vector-effect="non-scaling-stroke" stroke-width="1.51" stroke="rgb(255,187,100)" stroke-linejoin="miter" stroke-linecap="butt" stroke-miterlimit="4"/><path d=" M 1619 -187 L 1322 -151 L 1630 222 L 1619 -187 Z " fill="rgb(219,146,74)" vector-effect="non-scaling-stroke" stroke-width="1.51" stroke="rgb(219,146,74)" stroke-linejoin="miter" stroke-linecap="butt" stroke-miterlimit="4"/><path d=" M 169 -79 L -160 -117 L -62 114 L 169 -79 Z " fill="rgb(255,229,150)" vector-effect="non-scaling-stroke" stroke-width="1.51" stroke="rgb(255,229,150)" stroke-linejoin="miter" stroke-linecap="butt" stroke-miterlimit="4"/></g><rect x="0" y="898" width="1440" height="900" transform="matrix(-1,0,0,-1,1440,2696)" fill="rgb(235,235,235)"/><clipPath id="_clipPath_Yh8Kv0yzcKc58ZKQCOWSWtL6hujjkoV9"><rect x="0" y="898" width="1440" height="900" transform="matrix(-1,0,0,-1,1440,2696)" fill="rgb(235,235,235)"/></clipPath><g clip-path="url(#_clipPath_Yh8Kv0yzcKc58ZKQCOWSWtL6hujjkoV9)"><path d=" M 984 1056 L 1026 1275 L 652 1186 L 984 1056 Z " fill="rgb(243,128,28)" vector-effect="non-scaling-stroke" stroke-width="1.51" stroke="rgb(243,128,28)" stroke-linejoin="miter" stroke-linecap="butt" stroke-miterlimit="4"/><path d=" M 1026 1275 L 724 1392 L 652 1186 L 1026 1275 Z " fill="rgb(249,143,36)" vector-effect="non-scaling-stroke" stroke-width="1.51" stroke="rgb(249,143,36)" stroke-linejoin="miter" stroke-linecap="butt" stroke-miterlimit="4"/><path d=" M 1000 1616 L 806 1602 L 724 1392 L 1000 1616 Z " fill="rgb(251,162,53)" vector-effect="non-scaling-stroke" stroke-width="1.51" stroke="rgb(251,162,53)" stroke-linejoin="miter" stroke-linecap="butt" stroke-miterlimit="4"/><path d=" M 1339 1048 L 1354 1273 L 1026 1275 L 1339 1048 Z " fill="rgb(229,109,18)" vector-effect="non-scaling-stroke" stroke-width="1.51" stroke="rgb(229,109,18)" stroke-linejoin="miter" stroke-linecap="butt" stroke-miterlimit="4"/><path d=" M 758 754 L 1090 848 L 984 1056 L 758 754 Z " fill="rgb(225,102,15)" vector-effect="non-scaling-stroke" stroke-width="1.51" stroke="rgb(225,102,15)" stroke-linejoin="miter" stroke-linecap="butt" stroke-miterlimit="4"/><path d=" M 1237 1513 L 1000 1616 L 1026 1275 L 1237 1513 Z " fill="rgb(244,141,39)" vector-effect="non-scaling-stroke" stroke-width="1.51" stroke="rgb(244,141,39)" stroke-linejoin="miter" stroke-linecap="butt" stroke-miterlimit="4"/><path d=" M 1026 1275 L 1000 1616 L 724 1392 L 1026 1275 Z " fill="rgb(249,148,41)" vector-effect="non-scaling-stroke" stroke-width="1.51" stroke="rgb(249,148,41)" stroke-linejoin="miter" stroke-linecap="butt" stroke-miterlimit="4"/><path d=" M 652 1186 L 758 754 L 984 1056 L 652 1186 Z " fill="rgb(236,120,24)" vector-effect="non-scaling-stroke" stroke-width="1.51" stroke="rgb(236,120,24)" stroke-linejoin="miter" stroke-linecap="butt" stroke-miterlimit="4"/><path d=" M 724 1392 L 463 1450 L 652 1186 L 724 1392 Z " fill="rgb(255,160,48)" vector-effect="non-scaling-stroke" stroke-width="1.51" stroke="rgb(255,160,48)" stroke-linejoin="miter" stroke-linecap="butt" stroke-miterlimit="4"/><path d=" M 652 1186 L 367 1064 L 758 754 L 652 1186 Z " fill="rgb(240,135,36)" vector-effect="non-scaling-stroke" stroke-width="1.51" stroke="rgb(240,135,36)" stroke-linejoin="miter" stroke-linecap="butt" stroke-miterlimit="4"/><path d=" M 451 1556 L 463 1450 L 724 1392 L 451 1556 Z " fill="rgb(255,176,61)" vector-effect="non-scaling-stroke" stroke-width="1.51" stroke="rgb(255,176,61)" stroke-linejoin="miter" stroke-linecap="butt" stroke-miterlimit="4"/><path d=" M 463 1450 L 367 1064 L 652 1186 L 463 1450 Z " fill="rgb(251,159,51)" vector-effect="non-scaling-stroke" stroke-width="1.51" stroke="rgb(251,159,51)" stroke-linejoin="miter" stroke-linecap="butt" stroke-miterlimit="4"/><path d=" M 1354 1273 L 1237 1513 L 1026 1275 L 1354 1273 Z " fill="rgb(237,124,27)" vector-effect="non-scaling-stroke" stroke-width="1.51" stroke="rgb(237,124,27)" stroke-linejoin="miter" stroke-linecap="butt" stroke-miterlimit="4"/><path d=" M 1339 1048 L 1026 1275 L 984 1056 L 1339 1048 Z " fill="rgb(233,110,19)" vector-effect="non-scaling-stroke" stroke-width="1.51" stroke="rgb(233,110,19)" stroke-linejoin="miter" stroke-linecap="butt" stroke-miterlimit="4"/><path d=" M 1090 848 L 1339 1048 L 984 1056 L 1090 848 Z " fill="rgb(223,98,13)" vector-effect="non-scaling-stroke" stroke-width="1.51" stroke="rgb(223,98,13)" stroke-linejoin="miter" stroke-linecap="butt" stroke-miterlimit="4"/><path d=" M 806 1602 L 451 1556 L 724 1392 L 806 1602 Z " fill="rgb(255,172,59)" vector-effect="non-scaling-stroke" stroke-width="1.51" stroke="rgb(255,172,59)" stroke-linejoin="miter" stroke-linecap="butt" stroke-miterlimit="4"/><path d=" M 463 1450 L 223 1264 L 367 1064 L 463 1450 Z " fill="rgb(252,170,64)" vector-effect="non-scaling-stroke" stroke-width="1.51" stroke="rgb(252,170,64)" stroke-linejoin="miter" stroke-linecap="butt" stroke-miterlimit="4"/><path d=" M 367 1064 L 529 686 L 758 754 L 367 1064 Z " fill="rgb(228,126,33)" vector-effect="non-scaling-stroke" stroke-width="1.51" stroke="rgb(228,126,33)" stroke-linejoin="miter" stroke-linecap="butt" stroke-miterlimit="4"/><path d=" M 203 1682 L 223 1264 L 463 1450 L 203 1682 Z " fill="rgb(255,191,82)" vector-effect="non-scaling-stroke" stroke-width="1.51" stroke="rgb(255,191,82)" stroke-linejoin="miter" stroke-linecap="butt" stroke-miterlimit="4"/><path d=" M 367 1064 L 246 950 L 529 686 L 367 1064 Z " fill="rgb(234,142,47)" vector-effect="non-scaling-stroke" stroke-width="1.51" stroke="rgb(234,142,47)" stroke-linejoin="miter" stroke-linecap="butt" stroke-miterlimit="4"/><path d=" M 1090 848 L 1343 688 L 1339 1048 L 1090 848 Z " fill="rgb(209,82,4)" vector-effect="non-scaling-stroke" stroke-width="1.51" stroke="rgb(209,82,4)" stroke-linejoin="miter" stroke-linecap="butt" stroke-miterlimit="4"/><path d=" M 223 1264 L 246 950 L 367 1064 L 223 1264 Z " fill="rgb(247,161,65)" vector-effect="non-scaling-stroke" stroke-width="1.51" stroke="rgb(247,161,65)" stroke-linejoin="miter" stroke-linecap="butt" stroke-miterlimit="4"/><path d=" M 806 1602 L 438 1852 L 451 1556 L 806 1602 Z " fill="rgb(255,190,80)" vector-effect="non-scaling-stroke" stroke-width="1.51" stroke="rgb(255,190,80)" stroke-linejoin="miter" stroke-linecap="butt" stroke-miterlimit="4"/><path d=" M 1000 1616 L 809 1873 L 806 1602 L 1000 1616 Z " fill="rgb(252,172,71)" vector-effect="non-scaling-stroke" stroke-width="1.51" stroke="rgb(252,172,71)" stroke-linejoin="miter" stroke-linecap="butt" stroke-miterlimit="4"/><path d=" M 1089 2016 L 809 1873 L 1000 1616 L 1089 2016 Z " fill="rgb(251,174,87)" vector-effect="non-scaling-stroke" stroke-width="1.51" stroke="rgb(251,174,87)" stroke-linejoin="miter" stroke-linecap="butt" stroke-miterlimit="4"/><path d=" M 246 950 L 209 895 L 529 686 L 246 950 Z " fill="rgb(230,141,52)" vector-effect="non-scaling-stroke" stroke-width="1.51" stroke="rgb(230,141,52)" stroke-linejoin="miter" stroke-linecap="butt" stroke-miterlimit="4"/><path d=" M -22 800 L 209 895 L -184 1138 L -22 800 Z " fill="rgb(240,162,86)" vector-effect="non-scaling-stroke" stroke-width="1.51" stroke="rgb(240,162,86)" stroke-linejoin="miter" stroke-linecap="butt" stroke-miterlimit="4"/><path d=" M 1339 1048 L 1558 1180 L 1354 1273 L 1339 1048 Z " fill="rgb(217,97,14)" vector-effect="non-scaling-stroke" stroke-width="1.51" stroke="rgb(217,97,14)" stroke-linejoin="miter" stroke-linecap="butt" stroke-miterlimit="4"/><path d=" M 1354 1273 L 1585 1406 L 1237 1513 L 1354 1273 Z " fill="rgb(226,118,26)" vector-effect="non-scaling-stroke" stroke-width="1.51" stroke="rgb(226,118,26)" stroke-linejoin="miter" stroke-linecap="butt" stroke-miterlimit="4"/><path d=" M 1667 745 L 1558 1180 L 1339 1048 L 1667 745 Z " fill="rgb(198,79,7)" vector-effect="non-scaling-stroke" stroke-width="1.51" stroke="rgb(198,79,7)" stroke-linejoin="miter" stroke-linecap="butt" stroke-miterlimit="4"/><path d=" M 1558 1180 L 1585 1406 L 1354 1273 L 1558 1180 Z " fill="rgb(215,104,19)" vector-effect="non-scaling-stroke" stroke-width="1.51" stroke="rgb(215,104,19)" stroke-linejoin="miter" stroke-linecap="butt" stroke-miterlimit="4"/><path d=" M 1322 1949 L 1089 2016 L 1000 1616 L 1322 1949 Z " fill="rgb(245,166,85)" vector-effect="non-scaling-stroke" stroke-width="1.51" stroke="rgb(245,166,85)" stroke-linejoin="miter" stroke-linecap="butt" stroke-miterlimit="4"/><path d=" M 1343 688 L 1667 745 L 1339 1048 L 1343 688 Z " fill="rgb(193,70,3)" vector-effect="non-scaling-stroke" stroke-width="1.51" stroke="rgb(193,70,3)" stroke-linejoin="miter" stroke-linecap="butt" stroke-miterlimit="4"/><path d=" M 451 1556 L 203 1682 L 463 1450 L 451 1556 Z " fill="rgb(254,195,80)" vector-effect="non-scaling-stroke" stroke-width="1.51" stroke="rgb(254,195,80)" stroke-linejoin="miter" stroke-linecap="butt" stroke-miterlimit="4"/><path d=" M 809 1873 L 438 1852 L 806 1602 L 809 1873 Z " fill="rgb(255,189,89)" vector-effect="non-scaling-stroke" stroke-width="1.51" stroke="rgb(255,189,89)" stroke-linejoin="miter" stroke-linecap="butt" stroke-miterlimit="4"/><path d=" M -184 1138 L 209 895 L 246 950 L -184 1138 Z " fill="rgb(243,163,82)" vector-effect="non-scaling-stroke" stroke-width="1.51" stroke="rgb(243,163,82)" stroke-linejoin="miter" stroke-linecap="butt" stroke-miterlimit="4"/><path d=" M 438 1852 L 203 1682 L 451 1556 L 438 1852 Z " fill="rgb(255,204,98)" vector-effect="non-scaling-stroke" stroke-width="1.51" stroke="rgb(255,204,98)" stroke-linejoin="miter" stroke-linecap="butt" stroke-miterlimit="4"/><path d=" M 1322 1949 L 1000 1616 L 1237 1513 L 1322 1949 Z " fill="rgb(241,153,61)" vector-effect="non-scaling-stroke" stroke-width="1.51" stroke="rgb(241,153,61)" stroke-linejoin="miter" stroke-linecap="butt" stroke-miterlimit="4"/><path d=" M 1585 1406 L 1630 1576 L 1237 1513 L 1585 1406 Z " fill="rgb(219,124,35)" vector-effect="non-scaling-stroke" stroke-width="1.51" stroke="rgb(219,124,35)" stroke-linejoin="miter" stroke-linecap="butt" stroke-miterlimit="4"/><path d=" M 1630 1576 L 1322 1949 L 1237 1513 L 1630 1576 Z " fill="rgb(229,142,55)" vector-effect="non-scaling-stroke" stroke-width="1.51" stroke="rgb(229,142,55)" stroke-linejoin="miter" stroke-linecap="butt" stroke-miterlimit="4"/><path d=" M 438 1852 L 169 1877 L 203 1682 L 438 1852 Z " fill="rgb(255,215,122)" vector-effect="non-scaling-stroke" stroke-width="1.51" stroke="rgb(255,215,122)" stroke-linejoin="miter" stroke-linecap="butt" stroke-miterlimit="4"/><path d=" M 209 895 L 41 582 L 529 686 L 209 895 Z " fill="rgb(218,137,57)" vector-effect="non-scaling-stroke" stroke-width="1.51" stroke="rgb(218,137,57)" stroke-linejoin="miter" stroke-linecap="butt" stroke-miterlimit="4"/><path d=" M -184 1138 L 246 950 L 223 1264 L -184 1138 Z " fill="rgb(250,172,86)" vector-effect="non-scaling-stroke" stroke-width="1.51" stroke="rgb(250,172,86)" stroke-linejoin="miter" stroke-linecap="butt" stroke-miterlimit="4"/><path d=" M 203 1682 L -129 1399 L 223 1264 L 203 1682 Z " fill="rgb(255,199,101)" vector-effect="non-scaling-stroke" stroke-width="1.51" stroke="rgb(255,199,101)" stroke-linejoin="miter" stroke-linecap="butt" stroke-miterlimit="4"/><path d=" M -62 1684 L -129 1399 L 203 1682 L -62 1684 Z " fill="rgb(255,213,118)" vector-effect="non-scaling-stroke" stroke-width="1.51" stroke="rgb(255,213,118)" stroke-linejoin="miter" stroke-linecap="butt" stroke-miterlimit="4"/><path d=" M -22 800 L 41 582 L 209 895 L -22 800 Z " fill="rgb(223,148,77)" vector-effect="non-scaling-stroke" stroke-width="1.51" stroke="rgb(223,148,77)" stroke-linejoin="miter" stroke-linecap="butt" stroke-miterlimit="4"/><path d=" M 169 1877 L -62 1684 L 203 1682 L 169 1877 Z " fill="rgb(255,220,132)" vector-effect="non-scaling-stroke" stroke-width="1.51" stroke="rgb(255,220,132)" stroke-linejoin="miter" stroke-linecap="butt" stroke-miterlimit="4"/><path d=" M -129 1399 L -184 1138 L 223 1264 L -129 1399 Z " fill="rgb(255,187,100)" vector-effect="non-scaling-stroke" stroke-width="1.51" stroke="rgb(255,187,100)" stroke-linejoin="miter" stroke-linecap="butt" stroke-miterlimit="4"/><path d=" M 1619 1985 L 1322 1949 L 1630 1576 L 1619 1985 Z " fill="rgb(219,146,74)" vector-effect="non-scaling-stroke" stroke-width="1.51" stroke="rgb(219,146,74)" stroke-linejoin="miter" stroke-linecap="butt" stroke-miterlimit="4"/><path d=" M 169 1877 L -160 1915 L -62 1684 L 169 1877 Z " fill="rgb(255,229,150)" vector-effect="non-scaling-stroke" stroke-width="1.51" stroke="rgb(255,229,150)" stroke-linejoin="miter" stroke-linecap="butt" stroke-miterlimit="4"/></g></g></g></svg>